<svg width="69" height="74" viewBox="0 0 69 74" fill="none" xmlns="http://www.w3.org/2000/svg">
<path d="M12.7555 0.423584H58.084L68.3696 47.304L64.6026 47.3243L64.5123 63.8759L68.3949 63.8962L68.3695 66.662H7.09533C1.29604 66.1974 1.81334 55.5542 1.50317 52.7053L6.6658 5.04882C6.68569 2.93101 8.81988 0.423584 12.7555 0.423584Z" fill="#0E7BCE"/>
<path d="M12.7555 0.423584H17.0967L13.1455 66.662L6.36967 66.4671C0.703613 66.2443 -0.142673 52.6914 1.74868 47.7777L6.66598 5.04864C6.68587 2.93101 8.82024 0.423584 12.7555 0.423584Z" fill="#FFB21C"/>
<path d="M7.88438 47.2988H67.1949C64.5036 52.9763 64.5734 58.5754 67.1949 64.1002H7.88438C1.52214 64.1004 1.52303 47.2988 7.88438 47.2988Z" fill="white"/>
<path d="M3.57184 51.9177H65.6075C65.5713 52.0859 65.5379 52.2542 65.5066 52.422H3.45264C3.48977 52.2519 3.52885 52.0832 3.57184 51.9177ZM65.3173 53.6852C65.2977 53.8533 65.281 54.0215 65.2668 54.1895H3.18209C3.19737 54.0204 3.21655 53.8521 3.23787 53.6852H65.3173ZM65.2046 55.4527C65.2021 55.6208 65.2021 55.7888 65.2046 55.9569H3.11618C3.1137 55.7888 3.1137 55.6208 3.11618 55.4527H65.2046ZM65.2677 57.2198C65.2824 57.3885 65.299 57.5563 65.3181 57.7242H3.23876C3.21762 57.557 3.19897 57.3887 3.18351 57.2198H65.2677ZM65.5077 58.9873C65.5386 59.1551 65.5723 59.3234 65.6086 59.4915H3.57432C3.53062 59.3255 3.49154 59.1574 3.45459 58.9873H65.5077ZM65.9239 60.7542C65.9717 60.9224 66.0221 61.0907 66.0751 61.2585H4.20158C4.12554 61.0957 4.05271 60.927 3.98485 60.7542H65.9239ZM66.5163 62.5217C66.5814 62.6898 66.6487 62.8582 66.7181 63.026H5.3971C5.2422 62.872 5.09529 62.7032 4.95584 62.5217H66.5163Z" fill="#ECF0F1"/>
<path d="M10.5549 55.993H19.8231V73.5969L15.1505 67.854L10.5549 73.5969V55.993Z" fill="#FFB21C"/>
<path d="M14.0903 50.8216H61.8597H64.5835H65.8748C66.1962 49.6544 66.6335 48.4846 67.1895 47.3106C67.1909 47.3069 67.1931 47.3028 67.1952 47.2991H62.9558H14.3006H7.88403C1.99716 47.2991 1.55732 61.6868 6.56646 63.834C4.87016 58.8787 6.22521 50.8216 10.6305 50.8216H14.0903Z" fill="#DFE1E3"/>
<path d="M31.1923 38.5449H49.0593V37.2628H31.1923V38.5449Z" fill="#ECF0F1"/>
<path d="M32.6304 40.9695H47.6214V40.0095H32.6304V40.9695Z" fill="#ECF0F1"/>
</svg>
