<svg width="100" height="101" viewBox="0 0 100 101" fill="none" xmlns="http://www.w3.org/2000/svg">
<path d="M65.4108 14.5972L18.7471 33.4886L45.6043 99.8287L92.2679 80.9375L65.4108 14.5972Z" fill="white"/>
<path d="M1.35138 64.098H44.1273V12.9834H1.35138V64.098Z" fill="#15BDB1"/>
<path d="M31.139 64.0983H44.1269V23.2141L18.7471 33.489L31.139 64.0987V64.0983Z" fill="#C8CACC"/>
<path d="M0 62.6181H42.7759V11.5034H0V62.6181Z" fill="#666666"/>
<path d="M5.10177 28.2034H9.50628C10.1028 28.2034 10.5907 28.6909 10.5907 29.2877V33.6923C10.5907 34.2887 10.1032 34.7766 9.50628 34.7766H5.10177C4.50529 34.7766 4.0174 34.2887 4.0174 33.6923V29.2877C4.0174 28.6913 4.50529 28.2034 5.10177 28.2034Z" fill="white"/>
<path d="M13.6393 28.2034H18.0442C18.6407 28.2034 19.1282 28.6909 19.1282 29.2877V33.6923C19.1282 34.2887 18.6407 34.7766 18.0442 34.7766H13.6393C13.0434 34.7766 12.5549 34.2887 12.5549 33.6923V29.2877C12.5551 28.6913 13.043 28.2034 13.6393 28.2034Z" fill="white"/>
<path d="M22.177 28.2034H26.5819C27.1778 28.2034 27.6663 28.6909 27.6663 29.2877V33.6923C27.6663 34.2887 27.178 34.7766 26.5819 34.7766H22.177C21.5811 34.7766 21.0936 34.2887 21.0936 33.6923V29.2877C21.0936 28.6913 21.5811 28.2034 22.177 28.2034Z" fill="#FBB429"/>
<path d="M30.7152 28.2034H35.1197C35.7162 28.2034 36.2041 28.6909 36.2041 29.2877V33.6923C36.2041 34.2887 35.7162 34.7766 35.1197 34.7766H30.7152C30.1187 34.7766 29.6308 34.2887 29.6308 33.6923V29.2877C29.631 28.6913 30.1183 28.2034 30.7152 28.2034Z" fill="#FF5B61"/>
<path d="M5.10177 36.5532H9.50628C10.1028 36.5532 10.5907 37.0415 10.5907 37.6376V42.0421C10.5907 42.6386 10.1032 43.1265 9.50628 43.1265H5.10177C4.50529 43.1265 4.0174 42.639 4.0174 42.0421V37.6376C4.0174 37.0415 4.50529 36.5532 5.10177 36.5532Z" fill="white"/>
<path d="M13.6393 36.5532H18.0442C18.6407 36.5532 19.1282 37.0415 19.1282 37.6376V42.0421C19.1282 42.6386 18.6407 43.1265 18.0442 43.1265H13.6393C13.0434 43.1265 12.5549 42.639 12.5549 42.0421V37.6376C12.5551 37.0415 13.043 36.5532 13.6393 36.5532Z" fill="white"/>
<path d="M22.177 36.5532H26.5819C27.1778 36.5532 27.6663 37.0415 27.6663 37.6376V42.0421C27.6663 42.6386 27.178 43.1265 26.5819 43.1265H22.177C21.5811 43.1265 21.0936 42.639 21.0936 42.0421V37.6376C21.0936 37.0415 21.5811 36.5532 22.177 36.5532Z" fill="white"/>
<path d="M30.7151 36.5532H35.1196C35.7161 36.5532 36.204 37.0415 36.204 37.6376V42.0421C36.204 42.6386 35.7161 43.1265 35.1196 43.1265H30.7151C30.1186 43.1265 29.6307 42.639 29.6307 42.0421V37.6376C29.6309 37.0415 30.1182 36.5532 30.7151 36.5532Z" fill="white"/>
<path d="M5.10177 44.9036H9.50628C10.1028 44.9036 10.5907 45.3915 10.5907 45.9876V50.3925C10.5907 50.9884 10.1032 51.4758 9.50628 51.4758H5.10177C4.50529 51.4758 4.0174 50.988 4.0174 50.3925V45.9876C4.0174 45.3915 4.50529 44.9036 5.10177 44.9036Z" fill="white"/>
<path d="M13.6393 44.9036H18.0442C18.6407 44.9036 19.1282 45.3915 19.1282 45.9876V50.3925C19.1282 50.9884 18.6407 51.4758 18.0442 51.4758H13.6393C13.0434 51.4758 12.5549 50.988 12.5549 50.3925V45.9876C12.5551 45.3915 13.043 44.9036 13.6393 44.9036Z" fill="white"/>
<path d="M22.177 44.9036H26.5819C27.1778 44.9036 27.6663 45.3915 27.6663 45.9876V50.3925C27.6663 50.9884 27.178 51.4758 26.5819 51.4758H22.177C21.5811 51.4758 21.0936 50.988 21.0936 50.3925V45.9876C21.0936 45.3915 21.5811 44.9036 22.177 44.9036Z" fill="white"/>
<path d="M30.7151 44.9036H35.1196C35.7161 44.9036 36.204 45.3915 36.204 45.9876V50.3925C36.204 50.9884 35.7161 51.4758 35.1196 51.4758H30.7151C30.1186 51.4758 29.6307 50.988 29.6307 50.3925V45.9876C29.6309 45.3915 30.1182 44.9036 30.7151 44.9036Z" fill="white"/>
<path d="M5.10177 53.2529H9.50628C10.1028 53.2529 10.5907 53.7404 10.5907 54.3369V58.7414C10.5907 59.3379 10.1032 59.8258 9.50628 59.8258H5.10177C4.50529 59.8258 4.0174 59.3379 4.0174 58.7414V54.3369C4.0174 53.7402 4.50529 53.2529 5.10177 53.2529Z" fill="white"/>
<path d="M13.6393 53.2529H18.0442C18.6407 53.2529 19.1282 53.7404 19.1282 54.3369V58.7414C19.1282 59.3379 18.6407 59.8258 18.0442 59.8258H13.6393C13.0434 59.8258 12.5549 59.3379 12.5549 58.7414V54.3369C12.5551 53.7402 13.043 53.2529 13.6393 53.2529Z" fill="white"/>
<path d="M22.177 53.2529H26.5819C27.1778 53.2529 27.6663 53.7404 27.6663 54.3369V58.7414C27.6663 59.3379 27.178 59.8258 26.5819 59.8258H22.177C21.5811 59.8258 21.0936 59.3379 21.0936 58.7414V54.3369C21.0936 53.7402 21.5811 53.2529 22.177 53.2529Z" fill="white"/>
<path d="M30.7151 53.2529H35.1196C35.7161 53.2529 36.204 53.7404 36.204 54.3369V58.7414C36.204 59.3379 35.7161 59.8258 35.1196 59.8258H30.7151C30.1186 59.8258 29.6307 59.3379 29.6307 58.7414V54.3369C29.6309 53.7402 30.1182 53.2529 30.7151 53.2529Z" fill="white"/>
<path d="M2.90588 14.1914H39.8695V22.3635H2.90588V14.1914Z" fill="#C8CACC"/>
<path d="M53.2639 53.4478H54.6514V10.5381H53.2639V53.4478Z" fill="#0E7BCE"/>
<path d="M56.0393 53.4478H54.6514V10.5381H56.0393V53.4478Z" fill="#0E7BCE"/>
<path d="M56.0392 53.4478H57.4271V10.5381H56.0392V53.4478Z" fill="#0E7BCE"/>
<path d="M55.3479 62.5884L57.4274 53.4478H53.2639L55.3479 62.5884Z" fill="#FBB429"/>
<path d="M53.2639 10.5379H57.4272V9.18262H53.2639V10.5379Z" fill="white"/>
<path d="M54.6192 6.47314H56.0721C56.8176 6.47314 57.4274 7.08252 57.4274 7.82842V9.18312H53.2639V7.82842C53.2639 7.08252 53.8737 6.47314 54.6192 6.47314Z" fill="#0E7886"/>
<path d="M55.2626 63.2489H55.4362L56.1286 59.1614H54.5762L55.2626 63.2489Z" fill="#0E7886"/>
<path d="M46.773 88.8054L65.4315 81.1165L65.6928 81.7531L47.0344 89.4424L46.773 88.8054ZM43.9847 81.1456L44.2461 81.7826L69.9651 71.1839L69.7038 70.5474L43.9847 81.1456ZM45.3787 84.9757L45.64 85.6123L71.3591 75.014L71.0977 74.3771L45.3787 84.9757Z" fill="#D0D1D4"/>
<path d="M53.9461 73.7829L52.8898 71.1612L50.282 72.2124L49.8402 71.1155L52.448 70.0643L51.3969 67.4565L52.507 67.009L53.5582 69.6169L56.166 68.5657L56.6078 69.6626L53.9994 70.7137L55.0562 73.335L53.9461 73.7825V73.7829Z" fill="#0E7BCE"/>
<path d="M65.1678 46.4887V45.1438H70.4698V46.4887H65.1678Z" fill="#15BDB1"/>
<path d="M70.1278 61.5823C70.3788 61.5823 70.5782 61.5241 70.7237 61.4101C70.8714 61.2942 70.9786 61.1444 71.054 60.9597C71.1263 60.7749 71.1724 60.5673 71.1909 60.3391C71.2073 60.1104 71.2181 59.8802 71.2181 59.6497C71.2181 59.4253 71.2073 59.2054 71.1866 58.9852C71.1659 58.7669 71.1208 58.5696 71.048 58.3952C70.9751 58.2212 70.8675 58.0796 70.7241 57.972C70.5829 57.8661 70.3878 57.8118 70.1411 57.8118C69.8978 57.8118 69.7026 57.8639 69.5575 57.9694C69.412 58.0753 69.3001 58.2149 69.2233 58.3893C69.1462 58.5637 69.0946 58.7628 69.0718 58.9852C69.0468 59.2097 69.0343 59.4378 69.0343 59.6722C69.0343 59.9005 69.0446 60.1268 69.0653 60.353C69.0843 60.5813 69.1321 60.7849 69.2087 60.9675C69.2837 61.1501 69.3938 61.2977 69.539 61.4118C69.6866 61.5259 69.8817 61.5819 70.129 61.5819L70.1278 61.5823ZM68.1388 59.6661C68.1388 59.2612 68.1806 58.8936 68.261 58.5659C68.3421 58.2378 68.4669 57.9596 68.6327 57.7288C68.7989 57.5005 69.0069 57.3239 69.2575 57.1991C69.5112 57.0768 69.8058 57.0147 70.1464 57.0147C70.4784 57.0147 70.7669 57.0751 71.0142 57.1934C71.2597 57.3135 71.4634 57.488 71.6247 57.7141C71.7866 57.9407 71.9089 58.2184 71.99 58.547C72.071 58.8768 72.111 59.2489 72.111 59.6661C72.111 60.5464 71.953 61.2147 71.6335 61.6737C71.3157 62.1319 70.8136 62.3606 70.128 62.3606C69.439 62.3606 68.9364 62.1319 68.6165 61.6737C68.2991 61.2145 68.1388 60.5458 68.1388 59.6661ZM64.6425 56.9419C64.894 56.9419 65.0932 56.8843 65.2384 56.7675C65.3835 56.6534 65.4936 56.5018 65.5665 56.3192C65.6387 56.1344 65.6866 55.9247 65.7052 55.6883C65.7262 55.4536 65.7366 55.2169 65.7366 54.9782C65.7366 54.7624 65.7259 54.5485 65.7052 54.3323C65.6866 54.1182 65.6393 53.9231 65.5665 53.7508C65.4936 53.5786 65.3856 53.4395 65.2405 53.3309C65.0971 53.2233 64.9016 53.1694 64.6548 53.1694C64.4096 53.1694 64.2169 53.2237 64.0696 53.3296C63.9241 53.4329 63.8122 53.5719 63.735 53.7446C63.6579 53.9169 63.6085 54.1141 63.5835 54.3368C63.5585 54.5569 63.546 54.7807 63.546 55.0069C63.546 55.2417 63.5563 55.4762 63.577 55.7067C63.5981 55.9376 63.6456 56.1452 63.7204 56.3276C63.7954 56.5098 63.9051 56.6575 64.0524 56.7716C64.1975 56.8839 64.3952 56.9417 64.6419 56.9417H64.6425V56.9419ZM62.6534 55.0256C62.6534 54.6208 62.693 54.2532 62.7739 53.927C62.8549 53.6014 62.9815 53.3229 63.1499 53.0946C63.3178 52.8641 63.5276 52.6897 63.779 52.5653C64.0296 52.4405 64.3251 52.3801 64.6653 52.3801C64.9956 52.3801 65.2815 52.4387 65.5266 52.5584C65.7718 52.6795 65.9749 52.8516 66.1393 53.0799C66.3012 53.3055 66.4214 53.5842 66.5028 53.9124C66.5837 54.2401 66.6251 54.6118 66.6251 55.0251C66.6251 55.9053 66.4653 56.5737 66.1475 57.0327C65.8302 57.4895 65.3276 57.72 64.6425 57.72C63.9573 57.72 63.4548 57.4895 63.1331 57.0327C62.8131 56.5737 62.6534 55.9053 62.6534 55.0251V55.0256ZM63.3157 62.3421L70.9853 52.094L71.4917 52.4407L63.8825 62.6661L63.3157 62.3421Z" fill="#D0D1D4"/>
<path d="M76.7015 39.6744L75.4827 38.6233C74.8829 39.1645 74.3204 39.5414 73.7956 39.7528C73.2712 39.9643 72.6694 40.0172 71.9946 39.9182C71.3173 39.8166 70.6464 39.5155 69.9741 39.0164L70.7897 37.5946C71.5296 38.0678 72.1552 38.3176 72.6694 38.3422C73.3981 38.3754 73.9944 38.1735 74.4579 37.7393L70.6331 34.4399C70.072 34.8295 69.4192 35.1565 68.6762 35.4252C68.1272 35.6272 67.5704 35.6664 67.0057 35.5463C66.4389 35.424 65.9153 35.1531 65.4284 34.7332C64.5631 33.9865 64.1262 33.0744 64.1159 31.9986C64.1081 31.2795 64.4126 30.4789 65.0262 29.6039L64.4448 29.1017L65.0663 28.3818L65.6481 28.8836C66.3221 28.2373 67.0141 27.8599 67.719 27.7476C68.6182 27.6017 69.5022 27.8088 70.3692 28.3674L69.4882 29.7816C68.9438 29.4367 68.4426 29.2666 67.9891 29.274C67.5356 29.2769 67.0981 29.4432 66.6731 29.7684L70.1819 32.7953C70.8661 32.3189 71.3374 32.0207 71.5934 31.8957C72.0866 31.6605 72.5542 31.5287 72.9995 31.4979C73.4438 31.4629 73.8853 31.5254 74.3271 31.6812C74.7642 31.8371 75.1776 32.0809 75.5612 32.4111C76.4036 33.1381 76.8743 34.0109 76.978 35.0342C77.0792 36.0557 76.7821 37.0069 76.0909 37.8922L77.3234 38.9559L76.7025 39.6758L76.7015 39.6744ZM66.0374 30.4758C65.7024 31.008 65.5698 31.5455 65.6456 32.0824C65.7174 32.6199 65.9626 33.0682 66.3829 33.4307C66.7979 33.7895 67.2464 33.9746 67.7247 33.9844C68.2026 33.9947 68.754 33.7854 69.3749 33.3549L66.0374 30.4758ZM75.0794 37.0192C75.43 36.4959 75.5608 35.9287 75.4743 35.3152C75.3882 34.7055 75.0851 34.1744 74.5683 33.7283C74.1251 33.3463 73.6786 33.1504 73.219 33.1361C72.7622 33.1244 72.1692 33.3734 71.4388 33.8789L75.0794 37.0192Z" fill="#FBB429"/>
<path d="M77.3801 69.4364L77.9348 67.4835L75.9823 66.9288L76.1954 66.1786L78.1479 66.7337L78.7026 64.7808L79.4524 64.9938L78.8977 66.9468L80.8503 67.5015L80.6372 68.2517L78.6846 67.6966L78.1296 69.6495L77.3798 69.4364H77.3801Z" fill="#0E7BCE"/>
<path d="M32.7082 20.7534C33.1482 21.1934 33.7782 21.6234 34.7982 21.6234C35.9082 21.6234 36.9482 20.8434 36.9482 19.4634C36.9482 18.0834 36.0582 17.4634 34.9682 17.4634C34.5782 17.4634 34.2882 17.5634 33.9882 17.7234L34.1582 15.8334H36.6282V15.1234H33.4382L33.2282 18.1934L33.6682 18.4734C34.0482 18.2234 34.3182 18.0834 34.7582 18.0834C35.5782 18.0834 36.1182 18.6034 36.1182 19.4834C36.1182 20.3734 35.4982 20.9434 34.7182 20.9434C33.9682 20.9434 33.4882 20.5934 33.1082 20.2134L32.7082 20.7534Z" fill="white"/>
</svg>
