<svg width="101" height="101" viewBox="0 0 101 101" fill="none" xmlns="http://www.w3.org/2000/svg">
<g clip-path="url(#clip0)">
<path d="M68.5291 52.7021C70.0689 50.1131 72.4964 47.1073 70.031 42.5392C66.4027 26.6731 83.1258 23.4554 85.6543 30.0037C89.7687 31.5553 89.6595 40.0964 87.5433 44.5653C87.4486 46.4047 85.5371 48.0086 88.9921 52.7537L89.2411 52.6996C84.7588 53.9986 73.2688 53.4004 68.5291 52.7021Z" fill="#666666"/>
<path d="M72.9233 44.484C74.1844 47.1326 74.6499 48.1672 76.2168 49.3572C75.8506 56.103 70.6708 52.8798 66.8829 58.9962C66.5554 59.5239 65.5316 62.1633 64.6287 64.7289C68.8261 67.4775 73.8426 69.0769 79.2346 69.0769C84.6255 69.0769 89.6429 67.4775 93.8405 64.7289C92.9376 62.1625 91.9135 59.5239 91.5862 58.9962C87.7984 52.88 82.6175 56.1032 82.2523 49.3572C83.8183 48.1664 84.2847 47.1326 85.5458 44.484C85.8544 44.6455 86.1783 44.8647 86.429 44.5822C86.6798 44.2998 87.8741 40.6356 87.6595 40.1403C87.4448 39.646 87.2355 39.9608 86.9144 40.1854C86.9316 40.079 86.6618 41.5096 86.6654 41.2922C86.696 39.563 85.4566 38.0384 85.0677 33.4611C81.4711 40.1122 71.1132 37.377 71.5552 40.1862C69.538 38.7735 71.9891 44.5252 72.0405 44.582C72.2909 44.8647 72.6137 44.6455 72.9233 44.484Z" fill="#FED198"/>
<path d="M75.3805 52.5074C74.9368 53.2047 74.343 53.6504 73.654 54.0183L73.655 54.0193L79.4338 64.9725L84.7969 54.0111C84.0291 53.5988 83.3807 53.0873 82.9277 52.2357L82.9268 52.2347L79.2606 54.0587L79.1479 54.0669L75.895 52.3259L75.3807 52.5082V52.5074H75.3805Z" fill="#ECF0F1"/>
<path d="M78.3322 54.1013L78.6742 55.1207L77.9147 66.7379L79.2264 67.9504L80.5381 66.7379L79.7775 55.1207L80.1193 54.1013L79.2262 54.058L78.333 54.1013H78.3322Z" fill="#FFCA4F"/>
<path d="M73.6548 54.0175C71.7343 55.044 69.0747 55.4573 66.8818 58.9961C66.5542 59.5239 65.5304 62.1633 64.6275 64.7289C68.8249 67.4775 73.8415 69.0769 79.2334 69.0769C84.6244 69.0769 89.6417 67.4775 93.8393 64.7289C92.9364 62.1625 91.9124 59.5239 91.5851 58.9961C89.3866 55.4464 86.7191 55.0423 84.7959 54.0103L79.2733 64.8373L73.655 54.0185L73.654 54.0175H73.6548Z" fill="#0E7BCE"/>
<path d="M75.7946 51.2083L74.9241 53.0251L77.5139 57.3758L79.208 54.0579L75.7954 51.2081H75.7946V51.2083ZM82.6722 51.2083L83.5589 52.9827L80.9537 57.3758L79.2606 54.0579L82.6722 51.2083Z" fill="white"/>
<path d="M74.095 53.7614L79.2748 63.8503L84.3771 53.7658C84.6334 53.9291 84.9066 54.0735 85.1935 54.2115L79.2748 65.7772L73.3003 54.1979C73.579 54.0635 73.8452 53.9219 74.095 53.7621V53.7614Z" fill="#20D0C2"/>
<path d="M24.9335 47.6315H26.9488H33.0622H35.0774L35.8993 56.1816L37.3588 57.3525L40.4367 59.3128L30.005 83.9536L19.5732 59.3128L22.6511 57.3525L24.1117 56.1824L24.9326 47.6323L24.9335 47.6315Z" fill="#F0B97D"/>
<path d="M21.5869 57.9849L13.1784 60.6686L30.0062 83.9535L44.3224 59.8874L38.3821 58.0038L33.1509 61.6969H26.8794L21.5869 57.9839V57.9849Z" fill="#ECF0F1"/>
<path d="M28.1288 61.3586L28.8478 63.1322L27.2501 83.3391L30.0069 85.4482L32.7628 83.3391L31.1651 63.1322L31.8841 61.3586L30.0067 61.2838L28.1294 61.3586H28.1288Z" fill="#FFCA4F"/>
<path d="M21.7312 57.9397L6.85929 62.6865C6.85929 62.6865 4.92161 63.7519 4.35326 66.7316C4.24506 67.3007 4.18646 68.4519 4.16107 69.9665C11.2569 86.2972 26.8153 98.0975 45.3011 99.8348L46.1517 85.6756L46.9573 99.9629C47.9759 100.025 49.0024 100.06 50.0362 100.06C52.5495 100.06 55.0176 99.8727 57.4307 99.5147C56.9643 92.5153 56.1785 69.457 55.659 66.7316C55.0899 63.7519 53.153 62.6865 53.153 62.6865L38.382 58.0047L30.1278 85.0676L21.7312 57.9407V57.9397Z" fill="#0E7BCE"/>
<path d="M21.7312 57.9397L18.5234 58.9635L17.9072 67.1031C17.9072 67.1031 18.0768 67.7716 18.5865 67.7121L21.4814 68.8009C21.4814 68.8009 21.6718 68.9904 21.5021 69.2304L19.024 70.9282L30.3075 91.4103L40.9892 70.9282L38.5111 69.2304C38.3416 68.9904 38.531 68.8009 38.531 68.8009L41.4259 67.7121C41.9357 67.7724 42.1052 67.1031 42.1052 67.1031L41.491 58.9897L38.3814 58.0038L30.1272 85.0666L21.7302 57.9397H21.7312Z" fill="#20D0C2"/>
<path d="M17.6211 29.9251C17.6211 30.7577 17.317 31.5732 17.3397 32.3726C14.4899 31.8439 15.8667 40.3082 17.4786 41.4721C17.6067 41.5641 17.9223 41.3584 18.1875 41.1889C18.7469 44.3019 23.5199 52.6212 26.5554 56.1221C27.398 57.0946 32.5517 57.0784 33.386 56.159C36.4946 52.7364 41.2621 44.3191 41.8242 41.1879C42.0904 41.3574 42.4051 41.5631 42.5332 41.4711C44.1453 40.3074 45.5218 31.8431 42.6721 32.3716C42.6945 31.5724 42.3906 30.7568 42.3906 29.9241C42.2328 23.3516 36.2772 20.0698 30.0058 20.0416C23.7344 20.0696 17.7788 23.3514 17.62 29.9241L17.6211 29.9251Z" fill="#FED198"/>
<path d="M21.4398 21.4986C20.5414 21.394 17.2947 22.3881 16.9049 25.8232C16.5152 29.2576 16.701 32.423 16.701 32.423C16.701 32.423 18.6025 32.9028 18.8426 34.8522C19.0816 36.8016 18.9111 36.8016 18.9111 36.8016L19.6004 36.6465L20.0912 33.3042C22.9365 31.5208 20.0695 28.8804 22.9156 28.2615C30.6014 33.739 37.3834 32.8017 40.4414 30.2243C40.4414 30.2243 39.7269 32.9198 40.2781 33.8806C40.8283 34.8423 40.5 36.3559 40.5 36.3559L41.2154 36.3215C41.2154 36.3215 41.0865 32.3522 42.6732 32.3704C48.7028 22.4141 29.6135 10.0482 21.4406 21.4965L21.4398 21.4986Z" fill="#666666"/>
<path d="M24.0423 54.9611C24.2552 54.9765 21.5598 58.0165 21.5598 58.0165L23.8547 65.8746L30.0069 61.2839C26.6222 59.6231 24.6035 57.4724 24.0423 54.9611Z" fill="white"/>
<path d="M35.9708 54.9611C35.7579 54.9765 38.4533 58.0165 38.4533 58.0165L36.1584 65.8746L30.0062 61.2839C33.3899 59.6231 35.4106 57.4724 35.9708 54.9611Z" fill="white"/>
<path d="M64.0304 33.0382L68.6319 37.7606L67.3771 33.0382H67.7568C68.3341 33.0382 68.8067 32.5656 68.8067 31.9882V23.4174C68.8067 22.8401 68.3349 22.3674 67.7568 22.3674H51.9268C51.3495 22.3674 50.8768 22.8393 50.8768 23.4174V31.9882C50.8768 32.5656 51.3487 33.0382 51.9268 33.0382H64.0292H64.0304Z" fill="white"/>
<path d="M53.2051 23.8379H65.388V24.4603H53.2051V23.8379ZM53.2051 28.138H60.4236V28.7605H53.2051V28.138ZM53.2051 26.7047H65.388V27.3271H53.2051V26.7047ZM53.2051 25.2713H65.388V25.8937H53.2051V25.2713Z" fill="#FFB21C"/>
<path d="M51.1926 50.8546L45.7683 56.4214L47.2468 50.8546H46.7984C46.1181 50.8546 45.5616 50.298 45.5616 49.6179V39.5153C45.5616 38.835 46.1183 38.2786 46.7984 38.2786H65.4573C66.1376 38.2786 66.6941 38.8352 66.6941 39.5153V49.6179C66.6941 50.2982 66.1374 50.8546 65.4573 50.8546H51.1917H51.1926Z" fill="white"/>
<path d="M63.9519 40.0106H49.5915V40.744H63.9519V40.0106ZM63.9519 45.0795H55.4434V45.8129H63.9519V45.0795ZM63.9519 43.3899H49.5915V44.1233H63.9519V43.3899ZM63.9519 41.7003H49.5915V42.4336H63.9519V41.7003Z" fill="#FFB21C"/>
</g>
<defs>
<clipPath id="clip0">
<rect width="100" height="100" fill="white" transform="translate(0.0371094 0.0604248)"/>
</clipPath>
</defs>
</svg>
