<svg width="112" height="112" viewBox="0 0 112 112" fill="none" xmlns="http://www.w3.org/2000/svg">
<path d="M48.8696 83.225L46.782 91.421L39.7665 97.3048V98.5655H56.0007H72.2349V97.3048L65.2193 91.421L63.1318 83.225L56.0009 83.1202L48.8696 83.225Z" fill="#C8CACC"/>
<path d="M39.7665 97.3048V98.5655H56.0007H72.2342V97.3048H39.7665Z" fill="white"/>
<path d="M19.7793 26.5968H92.222C94.6024 26.5968 96.5495 28.5439 96.5495 30.9243V75.5498H15.4523V30.9243C15.4523 28.5439 17.3993 26.5968 19.7798 26.5968H19.7793Z" fill="#666666"/>
<path d="M18.3901 72.6105H93.6106V30.9237C93.6106 30.1651 92.9799 29.5344 92.222 29.5344H19.7793C19.0207 29.5344 18.3907 30.1651 18.3907 30.9237V72.6105H18.3901Z" fill="#0E7BCE"/>
<path d="M96.5488 75.5491V80.2815C96.5488 82.662 94.4027 84.609 91.7784 84.609H20.2215C17.5976 84.609 15.4516 82.662 15.4516 80.2815V75.5491H96.5488Z" fill="white"/>
<path d="M56.2495 37.6588C60.6151 37.6588 64.5684 39.4285 67.4293 42.2894C70.2901 45.1502 72.0598 49.1035 72.0598 53.4692C72.0598 57.8352 70.2901 61.7881 67.4293 64.6489C64.5688 67.5098 60.6151 69.2795 56.2495 69.2795C51.8834 69.2795 47.9299 67.5098 45.069 64.6489C42.2086 61.7881 40.4385 57.8348 40.4385 53.4692C40.4385 49.1031 42.2082 45.1502 45.069 42.2894C47.9301 39.429 51.8834 37.6588 56.2495 37.6588ZM68.6229 61.6413C68.7112 61.689 68.7719 61.7692 68.797 61.8592C70.3408 59.5538 71.2672 56.7998 71.3379 53.8338H65.3549C65.3077 56.0016 64.8778 58.1637 64.0646 60.1879C65.8928 60.5359 67.4772 61.02 68.6229 61.6413ZM68.4803 62.3147C68.4131 62.3199 68.3444 62.3067 68.2806 62.272C67.1626 61.6658 65.5949 61.196 63.7773 60.8606C63.6136 61.2233 63.4372 61.5806 63.2486 61.9331C61.8264 64.5785 59.6853 66.8958 56.8279 68.5506C60.7658 68.4021 64.3178 66.7451 66.9222 64.1412C67.4884 63.5747 68.0094 62.964 68.4803 62.314V62.3147ZM55.6713 68.5513C52.8137 66.8965 50.6722 64.5791 49.2506 61.9338C49.0624 61.5834 48.8873 61.2274 48.724 60.8658C46.9094 61.2008 45.3411 61.6693 44.2157 62.2722C44.1526 62.3058 44.0844 62.3181 44.0184 62.3132C44.4898 62.9638 45.0114 63.5745 45.5776 64.1414C48.182 66.7458 51.7345 68.4023 55.6719 68.5508L55.6713 68.5513ZM43.7032 61.8603C43.7282 61.7692 43.7891 61.6886 43.879 61.6409C45.0318 61.0232 46.6144 60.5411 48.4374 60.1935C47.622 58.1669 47.1915 56.0031 47.1442 53.8332H41.1613C41.2313 56.7998 42.1581 59.5544 43.7032 61.8598V61.8603ZM41.1613 53.1156H47.1425C47.1839 50.7687 47.6754 48.4304 48.6154 46.2667C46.7269 45.9181 45.0851 45.4286 43.8966 44.7955C42.2338 47.1595 41.232 50.0227 41.1608 53.1156H41.1613ZM44.3272 44.2132C45.4862 44.8099 47.0853 45.271 48.9241 45.5973C49.0373 45.3642 49.1561 45.1327 49.2801 44.9052C50.7019 42.2935 52.8297 40.0119 55.665 38.3866C51.7293 38.5366 48.1803 40.1932 45.577 42.7965C45.1317 43.2424 44.7144 43.715 44.3272 44.2132ZM56.8342 38.3866C59.6694 40.0113 61.798 42.2933 63.2191 44.9052C63.3442 45.135 63.4636 45.3677 63.5779 45.6018C65.4215 45.276 67.02 44.8125 68.1716 44.2126C67.7848 43.715 67.3675 43.242 66.9217 42.796C64.3184 40.1927 60.7695 38.5362 56.8337 38.3862L56.8342 38.3866ZM68.6032 44.7966C67.4221 45.4325 65.7803 45.9248 63.8862 46.2728C64.8255 48.4349 65.3153 50.7715 65.3567 53.1156H71.3379C71.2668 50.0232 70.2654 47.1606 68.6032 44.7966ZM56.6085 39.0838V46.1852C58.7706 46.1709 60.9167 46.017 62.8399 45.7234C62.7592 45.563 62.6762 45.4043 62.5908 45.2469C61.2527 42.788 59.2584 40.6346 56.6085 39.0838ZM56.6085 46.9035V53.1149H64.6419C64.5998 50.8095 64.1055 48.5134 63.1599 46.3968C61.14 46.7192 58.8797 46.8881 56.6089 46.9035H56.6085ZM56.6085 53.8332V59.5232C58.9486 59.5386 61.2783 59.717 63.3437 60.0593C64.1597 58.0798 64.592 55.9599 64.6402 53.8332H56.6085ZM56.6085 60.2408V67.8506C59.2755 66.2714 61.2794 64.0844 62.6181 61.5936C62.7699 61.3116 62.9127 61.025 63.0474 60.7355C61.0713 60.4205 58.8478 60.2562 56.6078 60.2408H56.6085ZM55.8907 67.8506V60.2408C53.6536 60.2579 51.4312 60.4244 49.454 60.7401C49.5875 61.0278 49.7304 61.3133 49.8811 61.5936C51.2204 64.0844 53.2236 66.2721 55.8907 67.8506ZM55.8907 59.5236V53.8336H47.8594C47.9071 55.9621 48.3405 58.085 49.1583 60.0654C51.2259 59.722 53.554 59.5412 55.8911 59.5234H55.8907V59.5236ZM55.8907 53.1156V46.9035C53.6228 46.8859 51.3635 46.7153 49.3425 46.3916C48.3945 48.5093 47.8993 50.8078 47.8577 53.1153H55.8907V53.1156ZM55.8907 46.1852V39.0845C53.2408 40.6352 51.2465 42.7887 49.9084 45.2476C49.8236 45.4034 49.7417 45.5608 49.6617 45.7189C51.5866 46.0135 53.732 46.1692 55.8907 46.1856V46.1852Z" fill="white"/>
<path d="M1.83112 17.7113H53.8821V51.1093H1.83112V17.7113Z" fill="#FBB429"/>
<path d="M100.257 67.5458H103.478V37.5093H100.257V67.5458Z" fill="#0E7BCE"/>
<path d="M101.869 73.9443L103.478 67.5458H100.257L101.869 73.9443Z" fill="#FBB429"/>
<path d="M100.918 34.5784H102.817C103.339 34.5784 103.766 35.0816 103.766 35.6964V49.6603H99.9678V35.6964C99.9678 35.0818 100.395 34.5784 100.917 34.5784H100.918Z" fill="#FBB429"/>
<path d="M101.803 74.4068H101.937L102.473 71.5453H101.271L101.803 74.4068H101.803Z" fill="#666666"/>
<path d="M99.9692 36.9883L104.611 37.0241L104.903 37.0262V37.3679V47.7687V47.875L104.849 47.966L104.409 48.7064C104.184 49.0498 103.714 48.7859 103.93 48.3122L104.316 47.6623V37.7102L99.9668 37.6766L99.969 36.9885V36.9883H99.9692Z" fill="#FF5B61"/>
<path d="M53.0503 17.7113H27.8577V49.82H53.0503V17.7113Z" fill="#DFE1E3"/>
<path d="M51.5513 17.7113C43.8518 17.7113 36.4972 14.3432 28.4512 17.7113V47.7882H51.5513V17.7113Z" fill="white"/>
<path d="M2.66388 17.7113H27.8572V49.82H2.66388V17.7113Z" fill="#DFE1E3"/>
<path d="M4.16216 17.7113C12.0596 17.7113 23.4744 14.4017 27.857 17.7113V47.7882H4.16216V17.7113Z" fill="white"/>
<path d="M6.18721 19.3763H18.8382V21.1148H6.18721V19.3763Z" fill="#0E7BCE"/>
<path d="M6.18721 31.8238H24.4764V32.4219H6.18721V31.8238ZM30.5593 31.8238H48.8491V32.4219H30.5593V31.8238ZM30.5593 23.9361H48.8491V24.5342H30.5593V23.9361ZM30.5593 29.9671H38.5678V30.5649H30.5593V29.9671ZM30.5593 28.7605H48.8491V29.3586H30.5593V28.7605ZM30.5593 27.5544H48.8491V28.1526H30.5593V27.5544ZM30.5593 26.3482H38.5678V26.9463H30.5593V26.3482ZM30.5593 25.1421H48.8491V25.7403H30.5593V25.1421ZM30.5593 37.854H36.8538V38.4521H30.5593V37.854ZM30.5593 36.6484H48.8491V37.2461H30.5593V36.6484ZM30.5593 35.4421H48.8491V36.0398H30.5593V35.4421ZM30.5593 34.2354H48.8491V34.8336H30.5593V34.2354ZM30.5593 33.0294H48.8491V33.6271H30.5593V33.0294ZM6.18721 23.9354H24.4764V24.5336H6.18721V23.9354ZM6.18721 29.9665H14.1957V30.5642H6.18721V29.9665ZM6.18721 28.7598H24.4764V29.358H6.18721V28.7598ZM6.18721 27.5538H24.4764V28.1519H6.18721V27.5538ZM6.18721 26.3477H24.4764V26.9459H6.18721V26.3477ZM6.18721 25.1415H24.4764V25.7396H6.18721V25.1415ZM6.18721 37.8534H12.4817V38.4515H6.18721V37.8534ZM6.18721 36.6477H24.4764V37.2455H6.18721V36.6477ZM6.18721 35.4417H24.4764V36.0394H6.18721V35.4417ZM6.18721 34.235H24.4764V34.8332H6.18721V34.235ZM6.18721 33.0288H24.4764V33.6265H6.18721V33.0288Z" fill="#C8CACC"/>
<path d="M78.8585 10.7772L95.2273 18.6718C96.0927 19.332 95.8415 23.4082 95.7368 24.1667C95.6316 24.926 95.1152 24.6597 94.5465 24.0683C93.9779 23.4769 95.7567 20.0313 94.3055 19.402L76.2192 11.5574C76.3965 11.2339 76.6673 10.9029 76.9834 10.7999C77.4378 10.6514 77.9507 10.6139 78.8582 10.7778V10.7772H78.8585Z" fill="#C8CACC"/>
<path d="M100.564 18.1942L82.7868 14.4218C81.6985 14.4144 79.4028 17.791 79.021 18.4559C78.6401 19.1202 79.2109 19.226 80.023 19.1065C80.8352 18.9871 81.5363 15.1732 83.0699 15.5632L102.174 20.4257C102.233 20.0617 102.22 19.6342 102.033 19.3595C101.766 18.9643 101.382 18.6196 100.565 18.1942H100.564Z" fill="#C8CACC"/>
<path d="M101.868 21.3202C101.688 21.6432 101.51 21.968 101.333 22.2869C101.002 22.8818 100.673 23.4778 100.345 24.0742C98.9811 26.5548 94.1361 25.53 92.3586 24.0588C92.2812 23.9951 92.2085 23.9252 92.1407 23.8513C91.701 23.3696 91.4491 22.6891 91.2984 22.064C91.1165 21.3076 91.0504 20.5105 91.0307 19.7337C91.0181 19.2498 91.0506 18.7106 91.0244 18.225C91.0415 18.1493 91.0602 18.075 91.0801 18.0026L94.3056 19.402C95.7575 20.0316 93.978 23.4765 94.5467 24.0679C95.1154 24.66 95.6318 24.9253 95.7369 24.1663C95.8421 23.4078 96.0929 19.3315 95.2268 18.6714L95.1631 18.6406L102.174 20.4257C102.129 20.7225 102.028 21.0343 101.869 21.3202H101.868ZM91.9905 16.374L100.563 18.1931C98.2765 17.0029 94.1701 16.1028 92.4967 15.9885C92.331 16.0857 92.1587 16.2118 91.9905 16.374ZM75.9128 12.4513C75.8582 12.817 75.7996 13.1825 75.745 13.5431C75.642 14.2164 75.5386 14.8892 75.4322 15.5619C74.9925 18.3586 79.452 20.5126 81.7585 20.437C81.8591 20.4342 81.9586 20.4227 82.0577 20.4058C82.7003 20.2943 83.3166 19.91 83.8176 19.5074C84.4238 19.0207 84.9647 18.431 85.456 17.8287C85.7619 17.4534 86.0667 17.007 86.3834 16.6391C86.417 16.5687 86.4472 16.498 86.4762 16.4293L83.0699 15.5621C81.5363 15.1721 80.8356 18.9853 80.023 19.1054C79.2109 19.2249 78.6401 19.1191 79.021 18.4548C79.4026 17.7905 81.6982 14.4133 82.7872 14.4207L82.8572 14.4354L76.2198 11.5568C76.0737 11.8195 75.9627 12.1276 75.9139 12.4519L75.9128 12.4513ZM86.7513 14.5839L78.8578 10.7767C81.3952 11.235 85.1932 13.036 86.587 13.9697C86.6581 14.1477 86.7177 14.3524 86.7513 14.5839Z" fill="#ECF0F1"/>
<path d="M75.9504 8.9033C77.9367 8.94536 86.2101 11.592 87.0545 12.5377C87.1484 12.6428 89.0158 13.8797 89.0135 13.8831L89.8022 14.217L90.6301 14.4353C90.6312 14.4314 92.8644 14.5957 93.0032 14.5702C94.2463 14.3399 102.363 17.2905 103.995 18.4797C104.452 18.6611 104.917 18.8686 104.906 18.9568C104.961 19.1832 104.336 20.5717 104.273 20.6173C104.223 20.6348 103.997 20.6327 103.648 20.6166C103.572 20.6849 103.492 20.7792 103.412 20.9089C103.084 21.4467 101.779 23.8103 101.335 24.6187C99.5843 27.8026 93.9722 26.8625 91.6367 24.9291C89.5281 23.1846 89.9574 18.9447 89.8848 18.1354C89.8705 17.9763 89.8911 17.7356 89.9338 17.4518C89.6222 17.0913 89.2235 16.7041 88.951 16.7073C88.7377 16.5374 88.1851 16.6005 87.7181 16.6948C87.5776 16.9449 87.4462 17.1481 87.3383 17.2652C86.7861 17.8611 84.5307 21.4767 81.7956 21.5664C78.7653 21.6659 73.7514 18.9757 74.3155 15.3857C74.4588 14.4741 74.8729 11.8066 74.9423 11.1799C74.9598 11.0218 74.9598 10.8898 74.9503 10.7829C74.7075 10.6101 74.5561 10.4942 74.5301 10.4532C74.508 10.3782 74.8633 8.89788 75.0448 8.75241C75.0869 8.6813 75.5129 8.77908 75.9495 8.902L75.9504 8.9033ZM75.9133 12.4512C75.8587 12.8174 75.8001 13.1831 75.7455 13.5436C75.6425 14.217 75.5391 14.8897 75.4333 15.5624C74.9932 18.3591 79.4525 20.5139 81.759 20.4375C81.8596 20.4347 81.9591 20.4232 82.0582 20.4063C82.7008 20.2949 83.3171 19.9105 83.8181 19.5084C84.425 19.021 84.9652 18.4313 85.4565 17.829C85.7624 17.4538 86.0672 17.0078 86.3839 16.6388C86.935 15.4601 86.8258 14.5632 86.5882 13.9701C84.7213 12.7185 78.5348 9.90989 76.8527 10.8623C76.4249 11.1044 76.0223 11.7403 75.9133 12.4516V12.4512ZM101.869 21.3201C102.218 20.6912 102.288 19.9417 102.098 19.4891C101.351 17.7063 94.7395 16.1419 92.4967 15.9889C91.9456 16.313 91.3104 16.9549 91.0245 18.2249C91.05 18.7099 91.0182 19.2497 91.0301 19.7336C91.05 20.5104 91.116 21.3082 91.2978 22.064C91.4485 22.689 91.7004 23.3695 92.1401 23.8512C92.2077 23.9252 92.2806 23.9952 92.358 24.0587C94.1355 25.5299 98.9805 26.5551 100.344 24.0741C100.672 23.4775 101.001 22.8817 101.333 22.2868C101.51 21.9673 101.688 21.6432 101.868 21.3201H101.869Z" fill="#0E7886"/>
</svg>
