<svg width="37" height="37" viewBox="0 0 37 37" fill="none" xmlns="http://www.w3.org/2000/svg">
<path d="M26.3226 36.4014H10.3226C4.82257 36.4014 0.322571 31.9014 0.322571 26.4014V10.4014C0.322571 4.90137 4.82257 0.401367 10.3226 0.401367H26.3226C31.8226 0.401367 36.3226 4.90137 36.3226 10.4014V26.4014C36.3226 31.9014 31.8226 36.4014 26.3226 36.4014Z" fill="#304FFE"/>
<path d="M0.322571 10.4014V26.4014C0.322571 31.9014 4.82257 36.4014 10.3226 36.4014H26.3226C31.8226 36.4014 36.3226 31.9014 36.3226 26.4014V10.4014C36.3226 9.40137 36.2226 8.50137 35.9226 7.60137C30.3226 3.10137 23.1226 0.401367 15.3226 0.401367C11.6226 0.401367 8.02257 1.00137 4.62257 2.20137C2.02257 4.00137 0.322571 7.00137 0.322571 10.4014Z" fill="#304FFE" fill-opacity="0.2902"/>
<path d="M15.3226 2.40137C10.3226 2.40137 5.72257 3.60137 1.52257 5.60137C0.722571 7.10137 0.322571 8.70137 0.322571 10.4014V26.4014C0.322571 31.9014 4.82257 36.4014 10.3226 36.4014H26.3226C31.8226 36.4014 36.3226 31.9014 36.3226 26.4014V10.6014C30.8226 5.50137 23.4226 2.40137 15.3226 2.40137Z" fill="#6200EA"/>
<path d="M36.3226 13.4014C31.0226 7.90137 23.6226 4.40137 15.3226 4.40137C9.92257 4.40137 4.82257 5.90137 0.522571 8.50137C0.422571 9.10137 0.322571 9.70137 0.322571 10.4014V26.4014C0.322571 31.9014 4.82257 36.4014 10.3226 36.4014H26.3226C31.8226 36.4014 36.3226 31.9014 36.3226 26.4014V13.4014Z" fill="#673AB7"/>
<path d="M36.3226 16.4014C31.4226 10.3014 23.8226 6.40137 15.3226 6.40137C9.72257 6.40137 4.62257 8.10137 0.322571 11.0014V26.4014C0.322571 31.9014 4.82257 36.4014 10.3226 36.4014H26.3226C31.8226 36.4014 36.3226 31.9014 36.3226 26.4014V16.4014Z" fill="#8E24AA"/>
<path d="M36.3226 26.4014V19.8014C31.8226 13.0014 24.1226 8.40137 15.3226 8.40137C9.72257 8.40137 4.52257 10.3014 0.322571 13.4014V26.4014C0.322571 31.9014 4.82257 36.4014 10.3226 36.4014H26.3226C31.8226 36.4014 36.3226 31.9014 36.3226 26.4014Z" fill="#C2185B"/>
<path d="M36.3226 26.4014V24.0014C32.7226 16.0014 24.7226 10.4014 15.3226 10.4014C9.62257 10.4014 4.32257 12.5014 0.322571 16.0014V26.4014C0.322571 31.9014 4.82257 36.4014 10.3226 36.4014H26.3226C31.8226 36.4014 36.3226 31.9014 36.3226 26.4014Z" fill="#D81B60"/>
<path d="M35.9226 29.2014C34.0226 19.6014 25.5226 12.4014 15.3226 12.4014C9.42257 12.4014 4.12257 14.8014 0.322571 18.7014V26.4014C0.322571 31.9014 4.82257 36.4014 10.3226 36.4014H26.3226C30.8226 36.4014 34.7226 33.4014 35.9226 29.2014Z" fill="#F50057"/>
<path d="M34.2226 32.4014C33.7226 22.4014 25.5226 14.4014 15.3226 14.4014C9.22257 14.4014 3.82257 17.3014 0.322571 21.8014V26.4014C0.322571 31.9014 4.82257 36.4014 10.3226 36.4014H26.3226C29.5226 36.4014 32.4226 34.8014 34.2226 32.4014Z" fill="#FF1744"/>
<path d="M15.3226 16.4014C8.82257 16.4014 3.22257 20.0014 0.322571 25.4014V26.4014C0.322571 31.9014 4.82257 36.4014 10.3226 36.4014H26.3226C28.5226 36.4014 30.6226 35.7014 32.2226 34.4014C32.2226 34.1014 32.3226 33.7014 32.3226 33.4014C32.3226 24.0014 24.7226 16.4014 15.3226 16.4014Z" fill="#FF5722"/>
<path d="M15.3226 18.4014C8.32257 18.4014 2.52257 23.1014 0.822571 29.6014C2.12257 33.6014 5.92257 36.4014 10.3226 36.4014H26.3226C27.7226 36.4014 28.9226 36.1014 30.1226 35.6014C30.2226 34.9014 30.3226 34.1014 30.3226 33.4014C30.3226 25.1014 23.6226 18.4014 15.3226 18.4014Z" fill="#FF6F00"/>
<path d="M15.3226 20.4014C8.42261 20.4014 2.82261 25.7014 2.42261 32.4014C4.22261 34.8014 7.12261 36.4014 10.3226 36.4014H26.3226C26.9226 36.4014 27.4226 36.3014 28.0226 36.2014C28.2226 35.3014 28.3226 34.4014 28.3226 33.4014C28.3226 26.2014 22.5226 20.4014 15.3226 20.4014Z" fill="#FF9800"/>
<path d="M25.9226 36.4014C26.2226 35.4014 26.3226 34.4014 26.3226 33.4014C26.3226 27.3014 21.4226 22.4014 15.3226 22.4014C9.22257 22.4014 4.32257 27.3014 4.32257 33.4014C4.32257 33.7014 4.32257 34.1014 4.42257 34.4014C6.12257 35.6014 8.12257 36.4014 10.3226 36.4014H25.9226Z" fill="#FFC107"/>
<path d="M15.3226 24.4014C10.3226 24.4014 6.32257 28.4014 6.32257 33.4014C6.32257 34.2014 6.42257 35.0014 6.62257 35.7014C7.72257 36.2014 9.02257 36.4014 10.3226 36.4014H23.8226C24.1226 35.5014 24.3226 34.5014 24.3226 33.4014C24.3226 28.4014 20.3226 24.4014 15.3226 24.4014Z" fill="#FFD54F"/>
<path d="M15.3226 26.5015C11.4226 26.5015 8.32257 29.6015 8.32257 33.5015C8.32257 34.5015 8.52257 35.4015 8.92257 36.3015C9.42257 36.4015 9.82257 36.4015 10.3226 36.4015H21.7226C22.1226 35.5015 22.3226 34.5015 22.3226 33.5015C22.3226 29.6015 19.2226 26.5015 15.3226 26.5015Z" fill="#FFE082"/>
<path d="M15.3226 28.5015C12.5226 28.5015 10.3226 30.7015 10.3226 33.5015C10.3226 34.6015 10.7226 35.6015 11.3226 36.4015H19.3226C19.9226 35.6015 20.3226 34.6015 20.3226 33.5015C20.3226 30.7015 18.1226 28.5015 15.3226 28.5015Z" fill="#FFECB3"/>
<path d="M24.3226 32.4014H12.3226C7.92257 32.4014 4.32257 28.8014 4.32257 24.4014V12.4014C4.32257 8.00137 7.92257 4.40137 12.3226 4.40137H24.3226C28.7226 4.40137 32.3226 8.00137 32.3226 12.4014V24.4014C32.3226 28.8014 28.7226 32.4014 24.3226 32.4014ZM12.3226 6.40137C9.02257 6.40137 6.32257 9.10137 6.32257 12.4014V24.4014C6.32257 27.7014 9.02257 30.4014 12.3226 30.4014H24.3226C27.6226 30.4014 30.3226 27.7014 30.3226 24.4014V12.4014C30.3226 9.10137 27.6226 6.40137 24.3226 6.40137H12.3226Z" fill="white"/>
<path d="M18.3226 25.4014C14.4226 25.4014 11.3226 22.3014 11.3226 18.4014C11.3226 14.5014 14.4226 11.4014 18.3226 11.4014C22.2226 11.4014 25.3226 14.5014 25.3226 18.4014C25.3226 22.3014 22.2226 25.4014 18.3226 25.4014ZM18.3226 13.4014C15.5226 13.4014 13.3226 15.6014 13.3226 18.4014C13.3226 21.2014 15.5226 23.4014 18.3226 23.4014C21.1226 23.4014 23.3226 21.2014 23.3226 18.4014C23.3226 15.6014 21.1226 13.4014 18.3226 13.4014Z" fill="white"/>
<path d="M26.3226 10.4014C26.3226 11.0014 25.9226 11.4014 25.3226 11.4014C24.7226 11.4014 24.3226 11.0014 24.3226 10.4014C24.3226 9.80137 24.7226 9.40137 25.3226 9.40137C25.9226 9.40137 26.3226 9.80137 26.3226 10.4014Z" fill="white"/>
</svg>
