<svg width="81" height="89" viewBox="0 0 81 89" fill="none" xmlns="http://www.w3.org/2000/svg">
<path d="M38.4771 18.7653H39.2807H41.719H42.5223L42.8503 22.4692L43.4325 22.9765L44.66 23.8258L40.5 34.5009L36.3404 23.8258L37.5679 22.9765L38.15 22.4695L38.4775 18.7656L38.4771 18.7653Z" fill="#F0B97D"/>
<path d="M37.1421 23.2504L33.7893 24.4129L40.4994 34.5003L46.2084 24.074L43.8397 23.2584L41.7534 24.8581H39.2529L37.1421 23.2504Z" fill="#ECF0F1"/>
<path d="M39.7509 24.7113L40.0376 25.4794L39.4006 34.2334L40.4997 35.1474L41.5987 34.2334L40.9618 25.4794L41.2484 24.7113L40.4995 24.6792L39.7509 24.7113Z" fill="#FF5B61"/>
<path d="M37.1997 23.2303L31.2692 25.2865C31.2692 25.2865 30.5014 25.72 30.2695 27.0388C30.0477 28.3019 29.9325 29.5925 29.7574 31.3343C32.5862 34.1544 36.3573 35.876 40.4991 35.876C44.6408 35.876 48.4125 34.1544 51.2411 31.3343C51.0656 29.5926 50.9509 28.3019 50.729 27.0388C50.497 25.72 49.7293 25.2865 49.7293 25.2865L43.8392 23.2584L40.4991 33.9002L37.1993 23.2303H37.1997Z" fill="#0E7BCE"/>
<path d="M37.1997 23.2303L35.9207 23.6741L35.6748 27.2003C35.6748 27.2003 35.7425 27.4898 35.9455 27.4641L37.1001 27.9356C37.1001 27.9356 37.1757 28.0178 37.1081 28.1217L36.1203 28.8574L39.5339 35.8472C39.8534 35.867 40.1757 35.8771 40.4997 35.8771C40.824 35.8771 41.1456 35.8673 41.4655 35.8472L44.8794 28.8574L43.8916 28.1217C43.8238 28.0179 43.8999 27.9356 43.8999 27.9356L45.0542 27.4641C45.2572 27.4899 45.3252 27.2003 45.3252 27.2003L45.0803 23.6855L43.8406 23.2587L40.5005 33.9005L37.2007 23.2307L37.1997 23.2303Z" fill="#20D0C2"/>
<path d="M35.7884 11.2323C35.7884 11.5764 35.6726 11.9132 35.6813 12.2441C34.5971 12.0255 35.1208 15.5231 35.734 16.0045C35.7829 16.0429 35.9025 15.958 36.0036 15.8875C36.216 17.174 38.0319 20.6123 39.1861 22.0592C39.507 22.4609 41.4677 22.4545 41.7848 22.0746C42.9677 20.6605 44.7807 17.1819 44.9946 15.8878C45.0956 15.9583 45.2157 16.0432 45.2641 16.0049C45.8776 15.524 46.4013 12.0258 45.3171 12.2444C45.3258 11.9136 45.21 11.5767 45.21 11.2326C45.1501 8.51629 42.8844 7.16037 40.4991 7.14868C38.1135 7.16003 35.848 8.51629 35.7879 11.2326L35.7884 11.2323Z" fill="#FED198"/>
<path d="M37.2412 7.75044C36.8996 7.7073 35.6645 8.11808 35.5163 9.5376C35.3684 10.9571 35.4392 12.2649 35.4392 12.2649C35.4392 12.2649 36.1624 12.4634 36.2537 13.2692C36.3446 14.0748 36.2798 14.0748 36.2798 14.0748L36.5418 14.0112L36.7284 12.6295C37.8109 11.8928 36.7204 10.8014 37.8028 10.546C40.7262 12.8094 43.3061 12.4222 44.4693 11.3574C44.4693 11.3574 44.1975 12.4712 44.4073 12.8684C44.6163 13.2656 44.4918 13.8915 44.4918 13.8915L44.7639 13.8774C44.7639 13.8774 44.7144 12.2369 45.3182 12.2445C47.612 8.13012 40.3508 3.01959 37.2418 7.75079L37.2412 7.75044Z" fill="#666666"/>
<path d="M38.1213 21.9401C38.2064 21.9469 37.1314 23.2642 37.1314 23.2642L38.0466 26.6683L40.4994 24.6796C39.1502 23.9603 38.3445 23.028 38.1213 21.9401Z" fill="white"/>
<path d="M42.8779 21.9401C42.7931 21.9469 43.8678 23.2642 43.8678 23.2642L42.9529 26.6683L40.4994 24.6796C41.8493 23.9603 42.6547 23.028 42.8779 21.9401Z" fill="white"/>
<path d="M39.1649 18.8802L39.8357 18.3842C40.0419 18.5934 41.0015 18.5899 41.2069 18.3823L41.8256 18.8802C42.1255 19.1216 42.4353 19.2046 42.5124 19.5798L42.7582 20.7772C42.8352 21.1528 42.1513 22.415 41.7745 22.415H39.1142C38.7375 22.415 38.2201 21.2107 38.2801 20.8307L38.4779 19.5798C38.5381 19.2001 38.8555 19.1095 39.1649 18.8802ZM40.3265 19.1607L39.0248 19.9034C39.0248 19.9034 39.0855 20.7253 39.254 20.9826C39.4225 21.2403 40.086 20.9333 40.086 20.9333C40.086 20.9333 40.086 20.2894 40.2788 20.2998C40.2803 20.3001 40.7111 20.3001 40.7128 20.2998C40.9053 20.2894 40.9053 20.9333 40.9053 20.9333C40.9053 20.9333 41.5684 21.2403 41.7373 20.9826C41.9061 20.725 41.9665 19.9034 41.9665 19.9034L40.6649 19.1607L40.4961 19.2123L40.3276 19.1607H40.3265Z" fill="#666666"/>
<path d="M31.803 21.2667L35.7892 20.2819V21.0261L31.954 22.0109C31.8602 22.0193 31.2348 22.2959 31.0388 22.5092C30.8428 22.7221 30.7207 23.0162 30.7207 23.3395C30.7207 25.4601 30.7239 27.5793 30.7239 29.6965H30.3779H30.035V29.324V23.3395C30.035 22.8108 30.2342 22.3304 30.5541 21.9829C30.874 21.6354 31.543 21.3007 31.803 21.2667Z" fill="#CCCCCC"/>
<path d="M33.4859 20.408L36.5628 19.7035C36.8196 19.6447 37.0732 19.8249 37.1271 20.1029L37.2213 20.5895C37.2754 20.8685 37.11 21.1443 36.8536 21.2026L33.7767 21.9075C33.5202 21.9662 33.2668 21.7861 33.2127 21.508L33.1181 21.0214C33.064 20.7428 33.2298 20.467 33.4858 20.4084V20.408H33.4859Z" fill="#FBB429"/>
<path d="M30.3766 28.1356C31.2888 28.1356 32.0285 28.939 32.0285 29.9303L32.0282 29.942H28.7253L28.7249 29.9303C28.7249 28.9393 29.4641 28.1356 30.3766 28.1356Z" fill="#666666"/>
<path d="M25.2459 29.6855H55.7536V32.1143H25.2459V29.6855Z" fill="#FBB429"/>
<path d="M29.213 32.1139H51.7864V47.6193C48.4448 49.6421 44.5967 50.7953 40.4999 50.7953C36.4033 50.7953 32.5549 49.6417 29.2133 47.6193V32.1139H29.213Z" fill="#FBB429"/>
<path d="M25.2459 32.1139L29.213 34.8453V32.1139H25.2459ZM55.7536 32.1139L51.7862 34.8453V32.1139H55.7536Z" fill="#F5A209"/>
<path d="M29.213 32.1139H51.7864V33.1455H29.213V32.1139Z" fill="#F5A209"/>
<path d="M24.9048 49.5505C24.9048 49.831 24.811 50.1053 24.8177 50.3739C23.3883 49.5247 24.6757 53.0997 25.1746 53.4906C25.3124 53.5978 25.5854 53.1722 25.6343 53.3541C26.0103 54.7664 26.4456 55.5543 26.9395 56.2314L26.8275 57.4975L26.353 57.9105L25.3536 58.6021H32.1273L31.1279 57.9105L30.6542 57.4975L30.5422 56.2314C31.0355 55.5543 31.4707 54.7664 31.8471 53.3541C31.8955 53.1722 32.1687 53.5982 32.3065 53.4906C32.8053 53.0999 34.0928 49.5247 32.6629 50.3739C32.6702 50.1053 32.5761 49.8308 32.5761 49.5505C32.5272 47.339 32.4644 45.0338 28.7406 45.0242C25.0167 45.0336 24.9535 47.3388 24.9051 49.5505H24.9048Z" fill="#FED198"/>
<path d="M31.5403 45.5141C33.108 45.3156 33.6699 49.0957 32.7273 50.3368L31.3536 54.8138L30.4212 55.832L27.1578 55.8475L26.2128 55.0054L24.8176 50.3743C22.95 47.0246 27.4296 42.1012 31.54 45.5145L31.5403 45.5141Z" fill="#666666"/>
<path d="M26.0538 58.1171L21.2259 59.7916C21.2259 59.7916 20.6006 60.1445 20.4118 61.2184C20.2312 62.2465 20.1377 63.2977 19.995 64.7162H37.4861L37.4864 64.7155C37.3434 63.2979 37.2499 62.2465 37.0692 61.2186C36.8805 60.145 36.2562 59.7918 36.2562 59.7918L31.4604 58.1403L26.0545 58.1176L26.0538 58.1171Z" fill="#0E7BCE"/>
<path d="M26.886 56.5439H30.6074C30.8226 56.5439 30.9259 56.7292 30.9991 56.9214L31.4595 58.1401L26.0532 58.1175L26.4938 56.9219C26.5653 56.7275 26.6704 56.5445 26.8855 56.5445L26.886 56.5439Z" fill="white"/>
<path d="M48.4234 49.5505C48.4234 49.831 48.3293 50.1053 48.3363 50.3739C46.9069 49.5247 48.1944 53.0997 48.6932 53.4906C48.831 53.5978 49.1037 53.1722 49.1526 53.3541C49.529 54.7664 49.9639 55.5543 50.4578 56.2314L50.3461 57.4975L49.8713 57.9105L48.8719 58.6021H55.6456L54.6465 57.9105L54.1729 57.4975L54.0608 56.2314C54.5541 55.5543 54.9893 54.7664 55.3657 53.3541C55.4141 53.1722 55.6877 53.5982 55.8251 53.4906C56.3239 53.0999 57.6114 49.5247 56.1816 50.3739C56.1885 50.1053 56.0947 49.8308 56.0947 49.5505C56.0458 47.339 55.983 45.0338 52.2588 45.0242C48.535 45.0336 48.4723 47.3388 48.4234 49.5505Z" fill="#FED198"/>
<path d="M55.0588 45.5141C56.6264 45.3156 57.1884 49.0957 56.2458 50.3368L54.8718 54.8138L53.939 55.832L50.6759 55.8475L49.731 55.0054L48.3358 50.3743C46.4682 47.0246 50.9477 42.1012 55.0582 45.5145L55.0588 45.5141Z" fill="#666666"/>
<path d="M49.5725 58.1171L44.7443 59.7916C44.7443 59.7916 44.1192 60.1445 43.9305 61.2184C43.7498 62.2465 43.6563 63.2977 43.5133 64.7162H61.0044L61.0047 64.7155C60.8617 63.2979 60.7682 62.2465 60.5875 61.2186C60.3991 60.145 59.7745 59.7918 59.7745 59.7918L54.9788 58.1403L49.5728 58.1176L49.5725 58.1171Z" fill="#0E7BCE"/>
<path d="M50.4046 56.5439H54.126C54.3417 56.5439 54.4445 56.7292 54.5177 56.9214L54.9778 58.1401L49.5718 58.1175L50.0121 56.9219C50.0839 56.7275 50.1887 56.5445 50.4041 56.5445L50.4046 56.5439Z" fill="white"/>
<path d="M11.7819 58.4782C11.7819 58.8306 11.6632 59.1759 11.6719 59.514C9.8744 58.4458 11.4933 62.9413 12.1209 63.4327C12.2943 63.5683 12.6374 63.0326 12.6985 63.2613C13.1712 65.0372 13.7184 66.0277 14.3397 66.8793L14.199 68.4721L13.6026 68.9917L12.3455 69.861H20.8635L19.6071 68.9917L19.0113 68.4721L18.8703 66.8793C19.4908 66.0282 20.0382 65.0372 20.5115 63.2613C20.5726 63.0324 20.9165 63.5683 21.0891 63.4327C21.7162 62.9411 23.3354 58.4461 21.5376 59.514C21.5466 59.1759 21.4284 58.8308 21.4284 58.4782C21.3668 55.6963 21.2875 52.7981 16.6047 52.7863C11.9212 52.7985 11.8423 55.6963 11.7814 58.4782H11.7819Z" fill="#FED198"/>
<path d="M20.1261 53.4024C22.0973 53.1524 22.804 57.9062 21.6191 59.4672L19.8918 65.0966L18.7188 66.3774L14.6153 66.3967L13.4272 65.338L11.6727 59.5135C9.32449 55.3013 14.9573 49.1104 20.1261 53.4024Z" fill="#666666"/>
<path d="M13.2266 69.2507L7.15553 71.3562C7.15553 71.3562 6.36974 71.8003 6.1318 73.1506C5.90478 74.4436 5.78676 75.7653 5.60751 77.5487H27.6033L27.6036 77.5483C27.424 75.7653 27.306 74.4436 27.0787 73.1506C26.8415 71.8003 26.0564 71.3562 26.0564 71.3562L20.0254 69.28L13.2271 69.2511L13.2266 69.2507Z" fill="#0E7BCE"/>
<path d="M14.2734 67.2722H18.9534C19.2247 67.2722 19.3541 67.5056 19.4462 67.7474L20.0249 69.2799L13.2263 69.251L13.7801 67.7476C13.8701 67.5032 14.0019 67.2724 14.2729 67.2724L14.2734 67.2722Z" fill="white"/>
<path d="M35.6764 58.4782C35.6764 58.8306 35.5577 59.1759 35.5664 59.514C33.7689 58.4458 35.3875 62.9413 36.0154 63.4327C36.1885 63.5683 36.532 63.0326 36.593 63.2613C37.0661 65.0372 37.6133 66.0277 38.2342 66.8793L38.0936 68.4721L37.4972 68.9917L36.2401 69.861H44.7581L43.5016 68.9917L42.9058 68.4721L42.7648 66.8793C43.3853 66.0282 43.933 65.0372 44.4057 63.2613C44.4668 63.0324 44.8107 63.5683 44.9833 63.4327C45.6104 62.9411 47.2297 58.4461 45.4318 59.514C45.4405 59.1759 45.3224 58.8308 45.3224 58.4782C45.261 55.6963 45.1817 52.7981 40.4991 52.7863C35.8162 52.7985 35.7371 55.6963 35.6761 58.4782H35.6764Z" fill="#FED198"/>
<path d="M44.0203 53.4024C45.9916 53.1524 46.6982 57.9062 45.5136 59.4672L43.7859 65.0966L42.6131 66.3774L38.5097 66.3967L37.3212 65.338L35.5668 59.5135C33.2187 55.3013 38.8517 49.1104 44.0203 53.4024Z" fill="#666666"/>
<path d="M37.1209 69.2507L31.0496 71.3562C31.0496 71.3562 30.2638 71.8003 30.0258 73.1506C29.7991 74.4436 29.6808 75.7653 29.5016 77.5487H51.4973L51.4976 77.5483C51.3184 75.7653 51.2001 74.4436 50.9727 73.1506C50.7359 71.8003 49.9504 71.3562 49.9504 71.3562L43.9194 69.28L37.1211 69.2511V69.2507H37.1209Z" fill="#0E7BCE"/>
<path d="M38.1676 67.2722H42.8476C43.1189 67.2722 43.2488 67.5056 43.3404 67.7474L43.9191 69.2799L37.1208 69.251L37.6747 67.7476C37.7647 67.5032 37.8965 67.2724 38.1671 67.2724L38.1676 67.2722Z" fill="white"/>
<path d="M59.5704 58.4782C59.5704 58.8306 59.4523 59.1759 59.4605 59.514C57.663 58.4458 59.2819 62.9413 59.9095 63.4327C60.0829 63.5683 60.426 63.0326 60.4871 63.2613C60.9598 65.0372 61.5073 66.0277 62.1286 66.8793L61.9879 68.4721L61.3915 68.9917L60.1344 69.861H68.6524L67.3963 68.9917L66.8002 68.4721L66.6592 66.8793C67.2797 66.0282 67.8274 65.0372 68.3004 63.2613C68.3611 63.0324 68.7054 63.5683 68.878 63.4327C69.5059 62.9411 71.1243 58.4461 69.3265 59.514C69.3355 59.1759 69.2173 58.8308 69.2173 58.4782C69.156 55.6963 69.0767 52.7981 64.394 52.7863C59.7112 52.7985 59.6321 55.6963 59.5707 58.4782H59.5704Z" fill="#FED198"/>
<path d="M67.9144 53.4024C69.8859 53.1524 70.5926 57.9062 69.4077 59.4672L67.6799 65.0966L66.5072 66.3774L62.4037 66.3967L61.2153 65.338L59.4611 59.5135C57.1123 55.3013 62.7456 49.1104 67.9144 53.4024Z" fill="#666666"/>
<path d="M61.0151 69.2507L54.9438 71.3562C54.9438 71.3562 54.158 71.8003 53.9207 73.1506C53.6932 74.4436 53.5753 75.7653 53.3961 77.5487H75.3919L75.3922 77.5483C75.2129 75.7653 75.0949 74.4436 74.8676 73.1506C74.6304 71.8003 73.8448 71.3562 73.8448 71.3562L67.8138 69.28L61.0158 69.2511L61.0151 69.2507Z" fill="#0E7BCE"/>
<path d="M62.062 67.2722H66.7416C67.0129 67.2722 67.1424 67.5056 67.2344 67.7474L67.8134 69.2799L61.0148 69.251L61.5687 67.7476C61.6587 67.5032 61.7905 67.2724 62.0615 67.2724L62.062 67.2722Z" fill="white"/>
</svg>
