<svg width="23" height="66" viewBox="0 0 23 66" fill="none" xmlns="http://www.w3.org/2000/svg">
<path d="M11.9545 8.79229C11.9545 8.79229 11.61 10.058 12.2989 10.5183C12.9878 10.9785 13.2174 13.1648 13.2174 13.1648L11.8397 16.9619L8.16563 17.6523L6.78786 15.0058V11.0936C6.78786 11.0936 7.24712 9.13749 7.13231 8.56216C7.01749 7.98684 11.9545 8.79229 11.9545 8.79229Z" fill="#FFB9B9"/>
<path opacity="0.2" d="M11.9545 8.79229C11.9545 8.79229 11.61 10.058 12.2989 10.5183C12.9878 10.9785 13.2174 13.1648 13.2174 13.1648L11.8397 16.9619L8.16563 17.6523L6.78786 15.0058V11.0936C6.78786 11.0936 7.24712 9.13749 7.13231 8.56216C7.01749 7.98684 11.9545 8.79229 11.9545 8.79229Z" fill="black"/>
<path d="M15.6286 30.5393L18.6138 31.1146C18.6138 31.1146 18.8434 34.4515 18.6138 35.257C18.3841 36.0624 18.1545 36.9829 18.3841 37.2131C18.6138 37.4432 17.3508 43.3115 17.4656 43.6567C17.5805 44.0019 17.8101 45.0375 17.6953 45.7279C17.5805 46.4183 17.236 46.1882 17.4656 46.8786C17.6953 47.5689 17.9249 47.684 17.6953 48.1443C17.4656 48.6045 16.3175 59.7658 15.9731 59.8809C15.6286 59.996 12.5287 60.111 12.5287 59.8809C12.5287 59.6508 13.562 57.9248 13.2175 57.4645C12.8731 57.0043 13.3324 49.1798 13.3324 48.8347C13.3324 48.4895 14.0212 47.9141 13.6768 47.684C13.3324 47.4539 13.1027 47.2237 13.2175 46.8786C13.3324 46.5334 13.562 46.4183 13.3324 46.0731C13.1027 45.7279 13.1027 38.824 12.299 38.5939C12.299 38.5939 11.2657 43.6567 11.6102 44.9224C11.9546 46.1882 11.4953 46.6484 11.4953 46.6484L13.1027 48.0292L10.9213 52.1715L8.625 49.525C8.625 49.525 8.625 48.8347 8.16575 48.7196C7.7065 48.6045 7.47687 48.4895 7.47687 48.1443C7.47687 47.7991 6.67317 45.6128 6.67317 45.6128C6.67317 45.6128 4.3769 38.3637 5.52504 34.6817C6.67317 30.9996 7.11549 31.1214 7.11549 31.1214L15.6286 30.5393Z" fill="#2F2E41"/>
<path d="M17.4657 54.3582L18.7286 55.7389L18.2694 59.5361H17.236L15.6286 55.9691L17.4657 54.3582Z" fill="#FFB9B9"/>
<path d="M18.2693 56.8895C18.2693 56.8895 17.81 57.9251 17.4656 57.695C17.1212 57.4648 17.007 57.1197 16.49 57.1197C15.973 57.1197 15.5138 57.2347 15.6286 57.4649C15.7434 57.695 17.1212 60.2264 17.1212 60.2264C17.3233 60.6585 17.4281 61.1299 17.4281 61.6072C17.4281 62.0844 17.3233 62.5558 17.1212 62.988C16.4323 64.4838 18.9582 65.2893 19.4174 63.6784C19.8767 62.0674 19.9915 60.2264 19.8767 59.536C19.7619 58.8456 20.4507 55.2786 20.4507 55.2786C20.4507 55.2786 18.596 54.4217 18.0308 54.3899C18.0308 54.3899 18.4989 56.4293 18.2693 56.8895Z" fill="#2F2E41"/>
<path d="M15.1694 59.4209L15.6287 60.8017C15.6287 60.8017 15.6287 62.1825 16.088 62.8728C16.5472 63.5632 17.0065 65.0591 15.1694 65.1741C13.3324 65.2892 12.5287 64.5988 12.5287 64.5988C12.5287 64.5988 12.8732 63.6783 12.5287 63.3331C12.1843 62.9879 12.5287 62.2975 12.5287 62.2975L12.8732 59.536L15.1694 59.4209Z" fill="#2F2E41"/>
<path d="M12.0693 47.9141H13.1026L18.2693 54.7029C18.2693 54.7029 17.3507 56.8891 15.973 57.1193C15.973 57.1193 15.7434 57.0042 14.71 56.3138C13.6767 55.6234 10.9212 52.1715 10.9212 52.1715L10.5768 50.2154L12.0693 47.9141Z" fill="#2F2E41"/>
<path d="M9.54336 10.288C11.5725 10.288 13.2174 8.63947 13.2174 6.60591C13.2174 4.57235 11.5725 2.92383 9.54336 2.92383C7.51424 2.92383 5.86932 4.57235 5.86932 6.60591C5.86932 8.63947 7.51424 10.288 9.54336 10.288Z" fill="#FFB9B9"/>
<path d="M14.0212 11.3238L12.873 10.8635C12.873 10.8635 12.7582 14.8908 10.5768 14.8908C8.3953 14.8908 6.09902 14.3155 6.09902 13.1648C6.09902 12.0142 4.26201 15.236 4.26201 15.236C4.26201 15.236 5.98421 26.7425 5.8694 26.8576C5.75459 26.9726 7.13235 33.0711 7.13235 33.0711C7.13235 33.0711 12.9878 33.3012 14.9397 32.4957C16.8915 31.6903 17.4656 30.1944 17.4656 30.1944L16.6619 20.0687L15.0545 12.2443L14.0212 11.3238Z" fill="#6C63FF"/>
<path d="M12.0701 10.2881C12.0701 10.2881 12.5287 9.8278 13.2175 10.2881C13.9064 10.7483 18.1545 11.7839 18.1545 12.1291V16.5016C18.1545 16.5016 18.2693 17.192 17.9249 17.6522C17.5805 18.1125 16.7768 19.8385 17.236 20.6439C17.6953 21.4494 19.4175 30.7696 19.073 31.9203C18.7286 33.0709 17.8101 34.1065 17.8101 34.1065C17.8101 34.1065 12.8731 23.6356 12.8731 20.6439C12.8731 17.6522 12.921 13.9819 12.921 13.9819L12.0701 10.2881Z" fill="#575A89"/>
<path d="M17.1211 12.2441H18.1544C18.1544 12.2441 22.0581 19.7234 22.0581 21.2192C22.0581 22.7151 19.5322 30.9997 19.3025 31.1148C19.0729 31.2299 18.384 29.8491 18.384 29.8491L17.81 25.2465C17.81 25.2465 18.9581 22.4849 18.6137 22.0247C18.2692 21.5644 16.547 17.9974 16.547 17.9974L17.1211 12.2441Z" fill="#575A89"/>
<path d="M6.95776 10.2883C6.95776 10.2883 5.63983 11.2088 5.41021 11.554C5.18058 11.8992 1.73617 13.8553 1.62136 14.3156C1.50654 14.7759 4.26207 18.6881 4.26207 18.6881C4.26207 18.6881 5.41021 25.1317 5.41021 25.592C5.41021 26.0522 5.86946 33.8767 5.86946 33.8767C5.86946 33.8767 10.5768 35.2574 10.5768 34.452C10.5768 33.6465 10.6916 22.14 10.0027 19.6086C9.31386 17.0772 6.95776 10.2883 6.95776 10.2883Z" fill="#575A89"/>
<path d="M7.70648 34.1064C7.70648 34.1064 11.6101 39.3994 9.5435 39.2844C7.47685 39.1693 6.09909 34.6818 6.09909 34.6818L7.70648 34.1064Z" fill="#FFB9B9"/>
<path d="M2.99907 13.97L1.62131 14.3152C1.62131 14.3152 0.473173 24.4409 1.16206 25.8217C1.85094 27.2024 5.52497 36.1775 5.52497 35.8323C5.52497 35.4871 8.75695 34.8719 8.63354 34.5466C8.51013 34.2214 7.82125 32.8406 7.59162 32.3804C7.362 31.9201 7.01756 31.3448 7.13237 30.7695C7.24719 30.1941 5.86942 27.7316 5.86942 27.7316C5.86942 27.7316 5.52498 26.2819 5.41017 25.5915C5.29536 24.9011 4.26203 17.3069 4.26203 17.3069L2.99907 13.97Z" fill="#575A89"/>
<path d="M13.1457 3.75576C13.0755 3.53923 12.9272 3.35672 12.7299 3.24387C12.7402 3.01528 12.7105 2.78664 12.6422 2.56832C12.4135 1.93055 11.8717 1.96711 11.3605 1.68514C11.1387 1.5628 11.1524 1.45468 11.037 1.25374C10.882 0.986754 10.6554 0.768674 10.3829 0.624275C10.055 0.427172 9.70881 0.224182 9.32085 0.19924C8.50553 0.146824 7.88042 0.870203 7.10115 1.10237C6.75767 1.2047 6.38859 1.20891 6.0433 1.30566C5.69801 1.4024 5.35351 1.63339 5.30205 1.96968C5.27829 2.12493 5.32021 2.2842 5.29611 2.43942C5.24821 2.74791 4.96129 2.96396 4.76922 3.21769C4.34448 3.77879 4.39306 4.57147 4.73272 5.18197C4.80465 5.30882 4.88655 5.42971 4.97765 5.54351C5.00648 5.83365 5.0945 6.11476 5.23624 6.36939C5.57591 6.97989 6.16038 7.43609 6.77094 7.81511C6.72099 7.61302 6.69066 7.40656 6.68038 7.19862C6.67178 7.12927 6.68136 7.05887 6.70817 6.99436C6.77617 6.86028 6.95583 6.82462 7.09282 6.75119C7.37656 6.59909 7.48783 6.2625 7.49604 5.95474C7.50425 5.64699 7.4351 5.33874 7.46928 5.03259C7.47113 4.96122 7.48844 4.8911 7.52002 4.8271C7.55159 4.7631 7.59667 4.70674 7.65214 4.66194C7.75795 4.60534 7.8771 4.57854 7.99689 4.5844C8.57824 4.56203 9.18566 4.55196 9.69844 4.29263C9.86484 4.18853 10.0425 4.10374 10.2281 4.03991C10.6638 3.93271 11.1092 4.22084 11.3604 4.57347C11.6115 4.9261 11.7368 5.34574 11.9685 5.71002C12.2002 6.0743 12.6005 6.39915 13.0485 6.35599C13.0735 6.35619 13.0982 6.35132 13.1212 6.34167C13.1442 6.33203 13.165 6.3178 13.1824 6.29987C13.2016 6.26749 13.2102 6.22989 13.207 6.19234L13.232 4.57685C13.2528 4.30017 13.2235 4.02201 13.1457 3.75576Z" fill="#2F2E41"/>
</svg>
