<svg width="43" height="31" viewBox="0 0 43 31" fill="none" xmlns="http://www.w3.org/2000/svg">
<path d="M42.5911 26.4014C42.5911 28.6123 40.802 30.4014 38.5911 30.4014H4.59106C2.38013 30.4014 0.591064 28.6123 0.591064 26.4014V4.40137C0.591064 2.19043 2.38013 0.401367 4.59106 0.401367H38.5911C40.802 0.401367 42.5911 2.19043 42.5911 4.40137V26.4014Z" fill="#3F51B5"/>
<path d="M37.5911 15.4014C37.5911 20.9248 33.1145 25.4014 27.5911 25.4014C22.0676 25.4014 17.5911 20.9248 17.5911 15.4014C17.5911 9.87793 22.0676 5.40137 27.5911 5.40137C33.1145 5.40137 37.5911 9.87793 37.5911 15.4014Z" fill="#FFC107"/>
<path d="M19.6067 21.4014C19.1418 20.7842 18.7434 20.1162 18.4309 19.4014H23.7551C24.0325 18.7646 24.2512 18.0967 24.3918 17.4014H17.7942C17.6614 16.7568 17.5911 16.0889 17.5911 15.4014H24.5911C24.5911 14.7139 24.5208 14.0459 24.3918 13.4014H17.7903C17.9348 12.7061 18.1497 12.0381 18.4309 11.4014H23.7551C23.4426 10.6865 23.0442 10.0186 22.5793 9.40137H19.6067C20.0403 8.82324 20.5364 8.28027 21.0872 7.80762C19.3372 6.31152 17.0715 5.40137 14.5911 5.40137C9.06763 5.40137 4.59106 9.87793 4.59106 15.4014C4.59106 20.9248 9.06763 25.4014 14.5911 25.4014C17.8606 25.4014 20.7512 23.8271 22.5754 21.4014H19.6067Z" fill="#FF3D00"/>
</svg>
