<svg width="73" height="79" viewBox="0 0 73 79" fill="none" xmlns="http://www.w3.org/2000/svg">
<path d="M33.0943 30.189H34.4472H38.5515H39.9045L40.4562 36.4005L41.436 37.2514L43.5026 38.675L36.4994 56.5768L29.4963 38.675L31.563 37.2514L32.5432 36.401L33.0943 30.189Z" fill="#F0B97D"/>
<path d="M30.9444 37.6774L20.9602 41.1257C20.9602 41.1257 19.9889 41.673 19.4764 43.2611C16.5024 46.7094 6.97632 57.9791 6.97632 60.8403C6.97632 64.2308 15.1073 72.3971 15.1073 72.3971H18.9666V75.3235H36.4995H54.0328V72.3971H57.8924C57.8924 72.3971 66.0232 64.2308 66.0232 60.8403C66.0232 57.9784 56.4957 46.7079 53.5227 43.26C53.0095 41.673 52.039 41.1259 52.039 41.1259L42.123 37.7246L41.2816 40.395L36.4995 40.1438L31.7871 40.3915L30.9444 37.6774ZM18.9666 57.4335L20.204 62.7753L19.9851 68.4186L18.9666 67.157L15.4131 61.6639L18.9666 57.4335ZM54.0328 67.1573L53.0148 68.3507L52.7955 61.7952L54.0328 57.4329L57.5868 61.6641L54.0328 67.1573Z" fill="#0E7BCE"/>
<path d="M30.8476 37.7111L29.5044 38.1747L36.4994 56.5769L43.5566 38.2162L42.1228 37.7246L38.6111 40.0732H34.401L30.8476 37.7111Z" fill="#F1F1F1"/>
<path d="M30.9445 37.6774L28.7907 38.4214L28.3771 44.3348C28.3771 44.3348 28.491 44.8208 28.8329 44.7772L30.7765 45.5678C30.7765 45.5678 30.9037 45.7057 30.7899 45.8796L29.1265 47.1131L34.8735 58.8344C35.4116 58.868 35.9538 58.885 36.4993 58.885C37.0454 58.885 37.5873 58.868 38.1253 58.8344L43.8723 47.1131L42.209 45.8796C42.0952 45.7057 42.2223 45.5678 42.2223 45.5678L44.1658 44.7772C44.5079 44.8208 44.6219 44.3348 44.6219 44.3348L44.2092 38.4405L42.1223 37.7244L36.499 55.5709L30.9445 37.6774Z" fill="#20D0C2"/>
<path d="M44.431 17.5576C44.431 18.1347 44.6257 18.7 44.6112 19.2538C46.4362 18.8872 45.555 24.7534 44.5225 25.5601C44.4405 25.6241 44.2386 25.4811 44.0684 25.3635C43.7102 27.5213 40.6535 33.2865 38.71 35.7131C38.1702 36.3871 34.8698 36.3757 34.3353 35.7389C32.3446 33.3673 29.2919 27.5337 28.9319 25.3635C28.7612 25.4812 28.5595 25.6241 28.4776 25.5601C27.4451 24.7534 26.5638 18.8872 28.3888 19.2538C28.3744 18.7 28.5687 18.1347 28.5687 17.5576C28.6698 13.0025 32.4836 10.7283 36.5001 10.709C40.5159 10.7283 44.3302 13.0025 44.431 17.5576Z" fill="#FED198"/>
<path d="M41.9855 11.7183C42.5608 11.6459 44.6399 12.335 44.8893 14.7153C45.1391 17.0958 45.0194 19.2888 45.0194 19.2888C45.0194 19.2888 43.8017 19.6218 43.6483 20.9727C43.4951 22.3239 43.6043 22.3239 43.6043 22.3239L43.1633 22.2168L42.8491 19.9003C41.027 18.6649 42.8628 16.8346 41.0402 16.406C36.1181 20.2024 31.7753 19.5528 29.8169 17.7667C29.8169 17.7667 30.2741 19.6348 29.9215 20.3006C29.5691 20.9668 29.7795 22.0163 29.7795 22.0163L29.3217 21.9923C29.3217 21.9923 29.4046 19.2415 28.3883 19.2535C24.5271 12.3543 36.7515 3.78386 41.9855 11.7183Z" fill="#666666"/>
<path d="M32.4957 35.5135C32.6387 35.5245 30.829 37.7168 30.829 37.7168L32.3694 43.383L36.4997 40.0727C34.2278 38.8755 32.872 37.3247 32.4957 35.5135Z" fill="white"/>
<path d="M40.5041 35.5135C40.3613 35.5245 42.1705 37.7168 42.1705 37.7168L40.6298 43.383L36.4998 40.0727C38.7717 38.8755 40.1277 37.3247 40.5041 35.5135Z" fill="white"/>
<path d="M18.6104 69.1019C20.939 69.1019 22.8263 70.3699 22.8263 71.9339C22.8263 73.4977 20.939 74.7659 18.6104 74.7659C16.2818 74.7659 14.3945 73.4975 14.3945 71.9339C14.3945 70.3699 16.2818 69.1019 18.6104 69.1019ZM18.6104 69.85C16.7983 69.85 15.3297 70.7838 15.3297 71.9339C15.3297 73.0846 16.7983 74.0184 18.6104 74.0184C20.4226 74.0184 21.8914 73.0846 21.8914 71.9339C21.8913 70.7838 20.4226 69.85 18.6104 69.85Z" fill="#ECF0F1"/>
<path d="M18.6104 74.018C20.4175 74.018 21.8914 73.0819 21.8914 71.9341C21.8914 70.7861 20.4175 69.8499 18.6104 69.8499C16.8034 69.8499 15.3297 70.7861 15.3297 71.9341C15.3296 73.0818 16.8034 74.018 18.6104 74.018Z" fill="#377BB9"/>
<path d="M17.2754 73.1244V75.4066C17.2754 75.6896 17.0618 75.9212 16.7997 75.9212H15.9612C15.6996 75.9212 15.4856 75.6896 15.4856 75.4066V71.8749C15.4856 71.8209 15.4934 71.7689 15.5078 71.7198V70.9423C15.5078 70.2815 16.0074 69.741 16.6182 69.741H23.4834C24.094 69.741 24.5932 70.2813 24.5932 70.9423V71.7187C24.6082 71.768 24.6159 71.8204 24.6159 71.875V75.4067C24.6159 75.6897 24.4022 75.9213 24.1402 75.9213H23.3019C23.0401 75.9213 22.8262 75.6897 22.8262 75.4067V73.1245H22.1689V75.4067C22.1689 75.6897 21.9554 75.9213 21.6933 75.9213H20.8548C20.593 75.9213 20.3792 75.6897 20.3792 75.4067V73.1245H19.7222V75.4067C19.7222 75.6897 19.5082 75.9213 19.2465 75.9213H18.408C18.146 75.9213 17.9324 75.6897 17.9324 75.4067V73.1245L17.2754 73.1244Z" fill="#FBB429"/>
<path d="M54.3899 69.1019C52.0618 69.1019 50.1742 70.3699 50.1742 71.9339C50.1742 73.4977 52.0616 74.7659 54.3899 74.7659C56.7185 74.7659 58.6061 73.4975 58.6061 71.9339C58.6061 70.3699 56.7184 69.1019 54.3899 69.1019ZM54.3899 69.85C56.2021 69.85 57.671 70.7838 57.671 71.9339C57.671 73.0846 56.2023 74.0184 54.3899 74.0184C52.5778 74.0184 51.1094 73.0846 51.1094 71.9339C51.1092 70.7838 52.5776 69.85 54.3899 69.85Z" fill="#ECF0F1"/>
<path d="M54.3903 74.018C56.1972 74.018 57.6714 73.0819 57.6714 71.9341C57.6714 70.7861 56.1972 69.8499 54.3903 69.8499C52.5833 69.8499 51.1096 70.7861 51.1096 71.9341C51.1095 73.0818 52.5833 74.018 54.3903 74.018Z" fill="#333333"/>
<path d="M55.7253 73.1244V75.4066C55.7253 75.6896 55.9389 75.9212 56.2009 75.9212H57.0394C57.3013 75.9212 57.5149 75.6896 57.5149 75.4066V71.8749C57.5149 71.8209 57.5071 71.7689 57.4927 71.7198V70.9423C57.4927 70.2815 56.9934 69.741 56.3826 69.741H49.5173C48.9066 69.741 48.4072 70.2813 48.4072 70.9423V71.7187C48.3922 71.768 48.3846 71.8204 48.3846 71.875V75.4067C48.3846 75.6897 48.5982 75.9213 48.8601 75.9213H49.6988C49.9603 75.9213 50.1743 75.6897 50.1743 75.4067V73.1245H50.8314V75.4067C50.8314 75.6897 51.0454 75.9213 51.3071 75.9213H52.1456C52.4076 75.9213 52.6212 75.6897 52.6212 75.4067V73.1245H53.2785V75.4067C53.2785 75.6897 53.4922 75.9213 53.7541 75.9213H54.5926C54.8543 75.9213 55.0679 75.6897 55.0679 75.4067V73.1245L55.7253 73.1244Z" fill="#FBB429"/>
<path d="M17.6937 47.0913H55.3063C56.5076 47.0913 57.4902 48.1549 57.4902 49.4544V71.9512C57.4902 73.2508 56.5076 74.3147 55.3063 74.3147H17.6937C16.4924 74.3147 15.5096 73.2508 15.5096 71.9512V49.4544C15.5096 48.1549 16.4924 47.0913 17.6937 47.0913Z" fill="white"/>
<path d="M16.3383 75.4739H56.6617C57.1175 75.4739 57.4904 75.8775 57.4904 76.3714V78.1011C57.4904 78.5952 57.1174 78.9983 56.6617 78.9983H16.3383C15.8824 78.9983 15.5094 78.5952 15.5094 78.1011V76.3714C15.5094 75.8775 15.8824 75.4739 16.3383 75.4739Z" fill="#C8CACC"/>
<path d="M21.6758 73.7734H25.2399V76.4033H21.6758V73.7734ZM47.7607 73.7734H51.3249V76.4033H47.7607V73.7734Z" fill="#ECF0F1"/>
<path d="M32.5459 57.2968H40.4541C40.5603 57.2968 40.6467 57.3903 40.6467 57.5052V59.4426C40.6467 59.5574 40.5603 59.6507 40.4541 59.6507H32.5459C32.4398 59.6507 32.3535 59.5574 32.3535 59.4426V57.5052C32.3537 57.3903 32.4398 57.2968 32.5459 57.2968Z" fill="#ECF0F1"/>
</svg>
