<svg width="42" height="31" viewBox="0 0 42 31" fill="none" xmlns="http://www.w3.org/2000/svg">
<path d="M42 26.4014C42 28.6123 40.2109 30.4014 38 30.4014H4C1.78906 30.4014 0 28.6123 0 26.4014V4.40137C0 2.19043 1.78906 0.401367 4 0.401367H38C40.2109 0.401367 42 2.19043 42 4.40137V26.4014Z" fill="#1565C0"/>
<path d="M12.1875 10.4014L9.55859 18.2334C9.55859 18.2334 8.89453 14.9209 8.82812 14.5029C7.33203 11.0928 5.125 11.2842 5.125 11.2842L7.72656 21.4014V21.3975H10.8867L15.2578 10.4014H12.1875Z" fill="white"/>
<path d="M14.6875 21.4014H17.5586L19.2969 10.4014H16.3906L14.6875 21.4014Z" fill="white"/>
<path d="M35.0078 10.4014H31.9883L27.2773 21.4014H30.1289L30.7188 19.8311H34.3125L34.6172 21.4014H37.2305L35.0078 10.4014ZM31.5117 17.7295L33.0742 13.5732L33.8945 17.7295H31.5117Z" fill="white"/>
<path d="M23.3672 13.6084C23.3672 13.0029 23.8672 12.5498 25.2969 12.5498C26.2227 12.5498 27.2852 13.2256 27.2852 13.2256L27.7539 10.917C27.7539 10.917 26.3945 10.4014 25.0625 10.4014C22.043 10.4014 20.4844 11.8428 20.4844 13.6709C20.4844 16.9795 24.4648 16.5264 24.4648 18.2217C24.4648 18.5146 24.2344 19.1865 22.5742 19.1865C20.9141 19.1865 19.8164 18.5771 19.8164 18.5771L19.3203 20.7959C19.3203 20.7959 20.3867 21.4014 22.4375 21.4014C24.4961 21.4014 27.3555 19.8623 27.3555 17.6475C27.3555 14.9873 23.3672 14.7959 23.3672 13.6084Z" fill="white"/>
<path d="M9.21094 16.3467L8.24609 11.5967C8.24609 11.5967 7.80859 10.5693 6.67188 10.5693C5.53516 10.5693 2.23438 10.5693 2.23438 10.5693C2.23438 10.5693 7.89453 12.2412 9.21094 16.3467Z" fill="#FFC107"/>
</svg>
