<svg width="37" height="37" viewBox="0 0 37 37" fill="none" xmlns="http://www.w3.org/2000/svg">
<path d="M36.7317 31.8008C36.7317 34.5628 34.4937 36.8008 31.7317 36.8008H5.73169C2.97069 36.8008 0.731689 34.5628 0.731689 31.8008V5.80078C0.731689 3.03878 2.97069 0.800781 5.73169 0.800781H31.7317C34.4937 0.800781 36.7317 3.03878 36.7317 5.80078V31.8008Z" fill="#1976D2"/>
<path d="M30.6687 12.8418C30.7147 12.6908 30.7367 12.5508 30.7307 12.4258C30.7157 12.0638 30.4667 11.8008 29.8807 11.8008H27.2627C26.6017 11.8008 26.2967 12.2008 26.1187 12.6018C26.1187 12.6018 24.4867 15.9608 22.6057 18.1758C21.9957 18.8168 21.6857 18.8008 21.3557 18.8008C21.1787 18.8008 20.7317 18.5868 20.7317 17.9998V12.8148C20.7317 12.1208 20.5587 11.8008 19.9997 11.8008H15.3507C14.9437 11.8008 14.7317 12.1208 14.7317 12.4418C14.7317 13.1088 15.6297 13.2688 15.7317 15.1378V18.7608C15.7317 19.6408 15.5787 19.8008 15.2487 19.8008C14.3587 19.8008 12.6067 16.8008 11.4337 12.8688C11.1797 12.0948 10.9257 11.8008 10.2647 11.8008H7.62169C6.85869 11.8008 6.73169 12.1748 6.73169 12.5748C6.73169 13.2958 7.33169 17.1938 10.6067 21.6758C12.9817 24.9258 16.1107 26.8008 18.8807 26.8008C20.5587 26.8008 20.7307 26.3738 20.7307 25.7068V22.7348C20.7317 21.9338 20.9147 21.8008 21.4487 21.8008C21.8297 21.8008 22.6067 22.0508 24.1067 23.8008C25.8367 25.8188 26.1507 26.8008 27.1427 26.8008H29.7607C30.3687 26.8008 30.7177 26.5458 30.7317 26.0508C30.7347 25.9248 30.7167 25.7838 30.6757 25.6268C30.4817 25.0508 29.5917 23.6428 28.4817 22.3008C27.8667 21.5578 27.2597 20.8218 26.9807 20.4218C26.7937 20.1608 26.7227 19.9768 26.7317 19.8008C26.7407 19.6158 26.8367 19.4398 26.9807 19.1938C26.9547 19.1938 30.3387 14.4428 30.6687 12.8418Z" fill="white"/>
</svg>
