<svg width="34" height="62" viewBox="0 0 34 62" fill="none" xmlns="http://www.w3.org/2000/svg">
<path d="M33.7189 34.1186L24.6383 32.2102L22.6986 41.1442L31.7792 43.0525L33.7189 34.1186Z" fill="#6C63FF"/>
<path d="M22.9512 29.823C22.9512 29.823 26.2865 32.1669 25.1747 33.1045C24.063 34.042 21.8394 30.2918 21.8394 30.2918L22.9512 29.823Z" fill="#FFB9B9"/>
<path d="M7.54517 33.4169C7.54517 33.4169 8.18047 41.2299 8.33929 42.3238C8.49811 43.4176 8.65694 53.262 8.97459 54.3558C9.29224 55.4496 9.60989 58.1061 9.60989 58.1061H11.5158C11.5158 58.1061 11.357 53.262 11.8334 51.3869C12.3099 49.5117 12.1511 44.3552 12.1511 44.3552C12.1511 44.3552 13.104 35.1358 12.6276 33.8857C12.1511 32.6356 7.54517 33.4169 7.54517 33.4169Z" fill="#FFB9B9"/>
<path d="M10.0864 57.6377C10.0864 57.6377 9.29226 58.1065 9.29226 58.419C9.29226 58.7315 9.45109 59.5128 9.29226 59.8253C9.13344 60.1379 8.02166 61.3879 8.65696 61.7005C9.29226 62.013 12.1511 61.7005 12.1511 61.7005C12.1511 61.7005 11.9923 59.5128 11.8335 59.3566C11.6746 59.2003 11.9923 57.6377 11.9923 57.6377H10.0864Z" fill="#2F2E41"/>
<path d="M19.6864 33.2258C19.6864 33.2258 19.8881 41.0613 19.8469 42.1655C19.8056 43.2696 20.698 53.0761 20.4988 54.1967C20.2996 55.3172 20.2671 57.9918 20.2671 57.9918L18.3718 58.1886C18.3718 58.1886 18.0129 53.3549 17.339 51.5393C16.6651 49.7238 16.2729 44.5793 16.2729 44.5793C16.2729 44.5793 14.3416 35.5092 14.6821 34.2168C15.0226 32.9245 19.6864 33.2258 19.6864 33.2258Z" fill="#FFB9B9"/>
<path d="M19.7433 57.5747C19.7433 57.5747 20.5831 57.9589 20.6164 58.2697C20.6498 58.5805 20.5752 59.3739 20.7665 59.6682C20.9578 59.9626 22.1968 61.091 21.5983 61.4674C20.9999 61.8438 18.1235 61.8282 18.1235 61.8282C18.1235 61.8282 18.048 59.6363 18.1893 59.4645C18.3306 59.2927 17.848 57.7715 17.848 57.7715L19.7433 57.5747Z" fill="#2F2E41"/>
<path d="M9.7687 21.6975C9.7687 21.6975 8.4981 21.8538 8.02162 24.5102C7.54515 27.1666 5.79807 33.8858 7.2275 34.3546C8.65694 34.8234 12.9452 35.7609 13.104 35.4484C13.2629 35.1359 13.5805 34.3546 13.5805 34.3546C13.5805 34.3546 13.104 35.7609 13.7393 35.7609C14.3746 35.7609 20.5688 34.8234 20.41 34.3546C20.2512 33.8858 19.9335 30.4481 19.9335 30.4481C19.9335 30.4481 18.9806 24.6665 18.0276 23.7289C17.7518 23.4684 17.5377 23.1513 17.4005 22.8003C17.2632 22.4492 17.2062 22.0727 17.2335 21.6975H9.7687Z" fill="#2F2E41"/>
<path d="M7.38636 20.4476C7.38636 20.4476 9.45109 19.9788 9.76874 20.6038C10.0864 21.2289 8.97462 22.1664 8.49814 22.1664C8.02167 22.1664 7.22754 21.6977 7.22754 21.6977L7.38636 20.4476Z" fill="#FFB9B9"/>
<path d="M11.6746 7.16542C13.2535 7.16542 14.5335 5.90614 14.5335 4.35273C14.5335 2.79932 13.2535 1.54004 11.6746 1.54004C10.0957 1.54004 8.8158 2.79932 8.8158 4.35273C8.8158 5.90614 10.0957 7.16542 11.6746 7.16542Z" fill="#FFB9B9"/>
<path d="M12.1511 6.38422C12.1511 6.38422 12.6275 8.57187 12.3099 8.57187C11.9922 8.57187 14.6923 9.97821 14.6923 9.97821L16.757 9.66569L17.3923 8.72813C17.3923 8.72813 14.057 6.54048 14.057 5.2904C14.057 4.04032 12.1511 6.38422 12.1511 6.38422Z" fill="#FFB9B9"/>
<path d="M13.5805 8.57155C13.5805 8.57155 13.104 8.25903 12.9452 8.25903H11.6746C11.5158 8.25903 9.45103 8.72781 9.45103 8.72781L8.18042 15.7595C8.18042 15.7595 10.404 19.3535 8.81572 22.1662C8.81572 22.1662 9.2922 21.8537 11.5158 22.01C13.7393 22.1662 17.7099 22.635 17.8688 22.635C18.0276 22.635 18.0276 21.3849 17.8688 21.0724C17.7099 20.7599 18.0276 20.9161 18.0276 20.1348C18.0276 19.3535 18.5041 17.9472 18.5041 17.9472L20.7276 9.97789C20.7276 9.97789 17.8688 8.41529 17.3923 8.57155C16.9158 8.72781 15.4864 9.19659 15.1687 9.04033C14.8511 8.88407 13.5805 8.57155 13.5805 8.57155Z" fill="#FFB21C"/>
<path d="M9.92752 8.88453L9.45105 8.72827C9.45105 8.72827 8.4981 8.57201 7.38632 9.50958C6.27455 10.4471 2.1451 13.2598 2.1451 13.2598C2.1451 13.2598 0.556847 14.5099 1.03332 15.9163C1.5098 17.3226 2.30392 20.7603 4.6863 20.6041C4.6863 20.6041 6.11572 22.4792 6.90985 22.1667C7.70397 21.8542 8.33928 20.6041 7.8628 20.4478C7.38633 20.2916 6.11573 18.7289 6.11573 18.7289L7.70398 15.76H8.18045L9.92752 14.8224V8.88453Z" fill="#FFB21C"/>
<path d="M19.457 9.82202L20.7276 9.97828C20.7276 9.97828 21.8394 10.4471 21.6806 12.4785C21.5218 14.5098 22.6335 23.7292 22.1571 24.823C22.1571 24.823 23.7453 30.1359 23.4277 30.2922C23.11 30.4484 21.2041 31.386 21.3629 30.7609C21.5218 30.1359 19.6159 25.7606 19.6159 25.7606C19.6159 25.7606 17.3923 23.4167 18.3453 20.1352V17.4788L19.457 9.82202Z" fill="#FFB21C"/>
<path d="M9.84811 8.02492L11.9128 7.942V6.9311L12.0762 7.93544L15.407 7.80169V7.24361L15.4972 7.79807L17.6305 7.71239L16.3599 3.60471C16.3599 2.74632 16.0133 1.92309 15.3964 1.31613C14.7795 0.709156 13.9427 0.368165 13.0703 0.368164H12.2643C10.9298 0.368164 8.73633 1.24296 8.73633 2.55581C9.8755 4.55223 11.4716 6.65173 9.84811 8.02492Z" fill="#2F2E41"/>
</svg>
