<svg width="100" height="101" viewBox="0 0 100 101" fill="none" xmlns="http://www.w3.org/2000/svg">
<path d="M22.966 14.6327H77.034V75.4589L65.8586 86.6348H22.966V14.6327Z" fill="#FFB21C" fill-opacity="0.4"/>
<path d="M65.858 75.4595H77.0334L65.858 86.6355V75.4595Z" fill="#FFCA4F"/>
<path d="M29.6578 22.6947H69.0713V23.2793H29.6578V22.6947ZM29.6578 56.3967H47.6905V56.9812H29.6578V56.3967ZM29.6578 53.2761H69.0713V53.8607H29.6578V53.2761ZM29.6578 49.4533H69.0713V50.0379H29.6578V49.4533ZM29.6578 45.631H69.0713V46.2156H29.6578V45.631ZM29.6578 41.8082H69.0713V42.3927H29.6578V41.8082ZM29.6578 37.9859H69.0713V38.5705H29.6578V37.9859ZM29.6578 34.1633H69.0713V34.7478H29.6578V34.1633ZM29.6578 30.3408H69.0713V30.9254H29.6578V30.3408ZM29.6578 26.5181H69.0713V27.1027H29.6578V26.5181Z" fill="#0E7BCE"/>
<path d="M47.3859 57.3687L39.5252 61.6034L43.1555 65.2341L47.3865 57.3687H47.3859Z" fill="#FFCA4F"/>
<path d="M40.5861 62.6656C41.4924 62.7481 42.0312 63.2127 42.0933 64.1723L13.701 92.5647L12.1937 91.0574L40.5861 62.6656Z" fill="#20D0C2"/>
<path d="M40.5862 62.6656C40.6625 61.9402 40.352 61.5488 39.5246 61.6037L11.1324 89.9961L12.194 91.0576L40.5862 62.6656Z" fill="#0E7BCE"/>
<path d="M14.7625 93.6262L11.1322 89.996L10.2357 90.8925L13.866 94.5227L14.7625 93.6262Z" fill="#ECF0F1"/>
<path d="M11.176 95.4199L9.33944 93.5828C8.84608 93.0894 8.84608 92.2826 9.33944 91.7898L10.2365 90.8933L13.8668 94.5236L12.9703 95.4201C12.4775 95.9128 11.6705 95.9134 11.1773 95.4201H11.176V95.4199Z" fill="#FFCA4F"/>
<path d="M47.8972 57.0063L47.7461 56.8551L44.438 58.9555L45.7916 60.3096L47.8972 57.0063Z" fill="#666666"/>
<path d="M42.0934 64.1723C42.8188 64.0959 43.2102 64.4065 43.1549 65.2342L14.7625 93.6268L13.701 92.5649L42.0934 64.1723Z" fill="#15BDB1"/>
</svg>
