<svg width="34" height="34" version="1.1" viewBox="0 0 34 34" xmlns="http://www.w3.org/2000/svg">
 <path d="m17 0c-4.5408 0-8.8106 1.7677-12.021 4.9785-3.2108 3.2108-4.9785 7.4807-4.9785 12.021s1.7677 8.8107 4.9785 12.021c3.2108 3.2109 7.4807 4.9785 12.021 4.9785s8.8107-1.7676 12.021-4.9785c3.2109-3.2108 4.9785-7.4807 4.9785-12.021 0-4.4103-1.681-8.5907-4.7344-11.771-0.193-0.20129-0.51384-0.20666-0.71484-0.013672-0.2011 0.19299-0.20667 0.51185-0.013672 0.71289 2.8718 2.9916 4.4531 6.924 4.4531 11.072 0 4.271-1.6634 8.2864-4.6836 11.307s-7.0356 4.6836-11.307 4.6836-8.2865-1.6634-11.307-4.6836-4.6836-7.0356-4.6836-11.307 1.6634-8.2865 4.6836-11.307 7.0356-4.6836 11.307-4.6836c3.7439 0 7.3848 1.3209 10.252 3.7188 0.214 0.17899 0.53194 0.15124 0.71094-0.0625 0.1787-0.21401 0.1515-0.53417-0.0625-0.71289-3.0485-2.5496-6.9199-3.9531-10.9-3.9531zm0 3.6973c-7.3348 0-13.303 5.968-13.303 13.303 0 3.5686 1.3948 6.9198 3.9258 9.4355 0.19792 0.1966 0.51821 0.19575 0.71484-0.001953 0.19662-0.1979 0.19571-0.51824-0.0019531-0.71484-2.339-2.3248-3.6289-5.4212-3.6289-8.7188 0-6.7778 5.5152-12.293 12.293-12.293 6.7778 0 12.293 5.5152 12.293 12.293s-5.5149 12.293-12.293 12.293c-2.6627 0-5.1957-0.83798-7.3262-2.4219-0.22386-0.1662-0.5405-0.12028-0.70703 0.10352-0.16628 0.2239-0.12034 0.54053 0.10352 0.70703 2.3058 1.7144 5.0483 2.6211 7.9297 2.6211 7.3348 0 13.303-5.9679 13.303-13.303 0-7.3348-5.9679-13.303-13.303-13.303zm-0.10938 1.7891c-0.19072 0.042832-0.35838 0.18902-0.39062 0.41211-0.0628 0.43476 0.44518 0.7435 0.80078 0.48047 0.2146-0.15875 0.26544-0.46402 0.11914-0.68555-0.12385-0.18846-0.33857-0.24986-0.5293-0.20703zm-5.4707 1.4688c-0.2254 0.03061-0.40314 0.2126-0.43164 0.4375-0.0249 0.19558 0.071135 0.39298 0.24024 0.49414 0.1933 0.1157 0.44698 0.087801 0.60938-0.068359 0.1745-0.16783 0.20331-0.44246 0.070312-0.64453-0.1074-0.15745-0.29838-0.24469-0.48828-0.21875zm10.994 0.0058594c-0.18692 0.036414-0.35303 0.1713-0.39648 0.38867-0.0918 0.45992 0.46537 0.78944 0.82227 0.48438 0.1925-0.1642 0.2308-0.45538 0.091797-0.66602-0.12375-0.18119-0.33065-0.24345-0.51758-0.20703zm-5.4141 1.7305c-1.151 0-2.0859 0.93718-2.0859 2.0879v4.877c-0.7356 0.6041-1.207 1.5208-1.207 2.5449 0 0.8597 0.33165 1.6414 0.87305 2.2285l-4.1836 5.2598c-0.1735 0.2181-0.13617 0.53548 0.082032 0.70898 0.0931 0.073899 0.2023 0.10937 0.3125 0.10937 0.069685 0 0.13877-0.016794 0.20312-0.044921-0.03782 0.22891 0.085695 0.4581 0.30078 0.54883 0.4231 0.1785 0.84923-0.28556 0.64453-0.69336-0.089-0.1772-0.28062-0.28694-0.47852-0.27734-0.02256 0.001099-0.042631 0.011495-0.064454 0.015625l3.9746-4.9961c0.4809 0.2752 1.0364 0.43164 1.6289 0.43164 1.0241 0 1.9408-0.46968 2.5449-1.2051h3.043c1.1507 0 2.0879-0.93524 2.0879-2.0859 0-1.151-0.93719-2.0879-2.0879-2.0879h-3.043c-0.1369-0.1668-0.29023-0.32003-0.45703-0.45703v-4.877c0-1.1507-0.93699-2.0879-2.0879-2.0879zm0 1.0098c0.594 0 1.0781 0.48413 1.0781 1.0781v4.3105c-0.338-0.1175-0.70072-0.18164-1.0781-0.18164-0.3772 0-0.73847 0.064341-1.0762 0.18164v-4.3105c0-0.594 0.48207-1.0781 1.0762-1.0781zm-9.5723 1.2852c-0.21037 0.0101-0.39633 0.15592-0.45703 0.35742-0.13541 0.449 0.38601 0.82795 0.77148 0.56055 0.19351-0.1344 0.26489-0.38952 0.17773-0.60742-0.08197-0.1946-0.28052-0.32095-0.49219-0.31055zm19.133 0.003906c-0.051724-0.001657-0.10562 0.004885-0.16016 0.021485-0.2438 0.0742-0.40171 0.33093-0.34961 0.58203 0.0833 0.44 0.68558 0.54568 0.92188 0.17188 0.21472-0.33941-0.050041-0.76379-0.41211-0.77539zm-9.5605 4.9277c1.2586 0 2.2832 1.0246 2.2832 2.2832s-1.0246 2.2812-2.2832 2.2812-2.2832-1.0226-2.2832-2.2812 1.0246-2.2832 2.2832-2.2832zm-11.113 0.58789c-0.18576 0.034638-0.35331 0.1657-0.40234 0.375-0.0498 0.2125 0.048778 0.44078 0.23633 0.55078 0.17976 0.1053 0.41236 0.087231 0.57422-0.042969 0.20104-0.1616 0.24241-0.45983 0.10156-0.67383-0.11946-0.18155-0.324-0.24362-0.50977-0.20898zm22.051 0c-0.1928 0.034525-0.36801 0.17208-0.41016 0.39453-0.0438 0.2319 0.084634 0.47055 0.30273 0.56055 0.2052 0.0823 0.44584 0.024562 0.58594-0.14844 0.1317-0.1626 0.14732-0.39617 0.041015-0.57617-0.11585-0.19585-0.32673-0.26499-0.51953-0.23047zm-7.8262 0.61719h2.4766c0.5941 0 1.0781 0.48412 1.0781 1.0781 0 0.5938-0.48402 1.0762-1.0781 1.0762h-2.4766c0.1173-0.338 0.18164-0.69897 0.18164-1.0762s-0.064341-0.74032-0.18164-1.0781zm-12.602 4.8867c-0.11135-0.012188-0.22773 0.012118-0.32617 0.074218-0.17094 0.1079-0.26158 0.31282-0.22656 0.51172 0.0358 0.2039 0.19533 0.36846 0.39844 0.41016 0.2044 0.0418 0.42061-0.054722 0.5293-0.23242 0.1201-0.1966 0.088681-0.45849-0.074219-0.62109-0.082615-0.08265-0.18943-0.13039-0.30078-0.14258zm19.078 0c-0.098782-0.010427-0.20253 0.009334-0.30078 0.068359-0.2112 0.1266-0.30353 0.3973-0.20703 0.625 0.0757 0.1943 0.28158 0.3208 0.48828 0.3125 0.2075-0.0083 0.39213-0.15076 0.45703-0.34766 0.1068-0.32565-0.14116-0.62692-0.4375-0.6582zm-4.1172 4.0391c-0.098983 6e-3 -0.19831 0.042035-0.28516 0.11523-0.1919 0.1622-0.23645 0.45742-0.09375 0.66602 0.2485 0.3779 0.85372 0.23787 0.91992-0.20703 0.050775-0.3393-0.24407-0.59222-0.54102-0.57422zm-5.5801 1.4844c-0.19008 0.043188-0.35768 0.19076-0.39062 0.41406-0.0335 0.2257 0.095741 0.45216 0.30664 0.53906 0.2052 0.0823 0.44614 0.024363 0.58594-0.14844 0.138-0.1704 0.14904-0.41671 0.027344-0.59961-0.12555-0.18885-0.33922-0.24826-0.5293-0.20508z"/>
</svg>
